<svg width="45" height="44" viewBox="0 0 45 44" fill="none" xmlns="http://www.w3.org/2000/svg">
<mask id="mask0_2005_457" style="mask-type:luminance" maskUnits="userSpaceOnUse" x="0" y="0" width="45" height="44">
<path d="M0.139648 0H44.2012V44H0.139648V0Z" fill="white"/>
</mask>
<g mask="url(#mask0_2005_457)">
<path d="M44.2012 22C44.2012 22.7213 44.1649 23.4377 44.0949 24.1566C44.0224 24.873 43.9185 25.5847 43.776 26.2914C43.6359 26.9982 43.462 27.6954 43.2518 28.3853C43.0417 29.0752 42.8001 29.7531 42.5223 30.4189C42.2469 31.0847 41.9401 31.736 41.5995 32.3704C41.2589 33.0048 40.8893 33.6224 40.4883 34.223C40.0873 34.8213 39.6573 35.4002 39.2008 35.955C38.7418 36.5123 38.2587 37.0454 37.7465 37.5568C37.2368 38.0658 36.703 38.5482 36.145 39.0066C35.587 39.4625 35.0096 39.8919 34.4081 40.2923C33.809 40.6928 33.1906 41.0618 32.5553 41.402C31.9176 41.7421 31.2678 42.0485 30.601 42.3259C29.9343 42.6009 29.2555 42.8421 28.5646 43.052C27.8738 43.2618 27.1756 43.4355 26.4679 43.5779C25.7601 43.7178 25.0475 43.8239 24.33 43.8939C23.6101 43.9638 22.8903 44 22.1704 44C21.4481 44 20.7283 43.9638 20.0108 43.8939C19.2934 43.8239 18.5783 43.7178 17.8705 43.5779C17.1628 43.4355 16.4646 43.2618 15.7738 43.052C15.0829 42.8421 14.4065 42.6009 13.7398 42.3259C13.0731 42.0485 12.4208 41.7421 11.7855 41.402C11.1478 41.0618 10.5294 40.6928 9.93029 40.2923C9.33121 39.8919 8.75145 39.4625 8.19344 39.0066C7.63542 38.5482 7.10156 38.0658 6.59186 37.5568C6.08216 37.0454 5.59661 36.5123 5.14005 35.955C4.68108 35.4002 4.25351 34.8213 3.85251 34.223C3.45151 33.6224 3.0795 33.0048 2.74131 32.3704C2.4007 31.736 2.0915 31.0847 1.81611 30.4189C1.54073 29.7531 1.29675 29.0752 1.08658 28.3853C0.878838 27.6954 0.702496 26.9982 0.562388 26.2914C0.42228 25.5847 0.315991 24.873 0.245937 24.1566C0.173467 23.4377 0.139648 22.7213 0.139648 22C0.139648 21.2787 0.173467 20.5599 0.245937 19.8434C0.315991 19.127 0.42228 18.4154 0.562388 17.7086C0.702496 17.0018 0.878838 16.3022 1.08658 15.6123C1.29675 14.9248 1.54073 14.2469 1.81611 13.5811C2.0915 12.9154 2.4007 12.264 2.74131 11.6296C3.0795 10.9928 3.45151 10.3752 3.85251 9.77697C4.25351 9.17873 4.68108 8.59978 5.14005 8.04254C5.59661 7.48531 6.08216 6.95219 6.59186 6.4432C7.10156 5.93421 7.63542 5.44934 8.19344 4.99342C8.75145 4.53509 9.33121 4.10811 9.93029 3.70768C10.5294 3.30724 11.1478 2.93816 11.7855 2.59803C12.4208 2.25789 13.0731 1.94912 13.7398 1.67412C14.4065 1.39912 15.0829 1.15548 15.7738 0.948026C16.4646 0.738158 17.1628 0.562062 17.8705 0.422149C18.5783 0.282237 19.2934 0.176096 20.0108 0.10614C20.7283 0.0337716 21.4481 0 22.1704 0C22.8903 0 23.6101 0.0337716 24.33 0.10614C25.0475 0.176096 25.7601 0.282237 26.4679 0.422149C27.1756 0.562062 27.8738 0.738158 28.5646 0.948026C29.2555 1.15548 29.9343 1.39912 30.601 1.67412C31.2678 1.94912 31.9176 2.25789 32.5553 2.59803C33.1906 2.93816 33.809 3.30724 34.4081 3.70768C35.0096 4.10811 35.587 4.53509 36.145 4.99342C36.703 5.44934 37.2368 5.93421 37.7465 6.4432C38.2587 6.95219 38.7418 7.48531 39.2008 8.04254C39.6573 8.59978 40.0873 9.17873 40.4883 9.77697C40.8893 10.3752 41.2589 10.9928 41.5995 11.6296C41.9401 12.264 42.2469 12.9154 42.5223 13.5811C42.8001 14.2469 43.0417 14.9248 43.2518 15.6123C43.462 16.3022 43.6359 17.0018 43.776 17.7086C43.9185 18.4154 44.0224 19.127 44.0949 19.8434C44.1649 20.5599 44.2012 21.2787 44.2012 22Z" fill="#FF3636"/>
</g>
</svg>
