<svg width="101" height="87" viewBox="0 0 101 87" fill="none" xmlns="http://www.w3.org/2000/svg">
<mask id="mask0_2084_608" style="mask-type:luminance" maskUnits="userSpaceOnUse" x="40" y="0" width="21" height="27">
<path d="M40.4655 0H60.767V26.2047H40.4655V0Z" fill="white"/>
</mask>
<g mask="url(#mask0_2084_608)">
<path d="M49.0963 25.1026C49.8285 25.9581 51.1793 25.9581 51.9116 25.1026L60.085 15.5353C61.0737 14.3792 60.2225 12.6245 58.6814 12.6245H54.6316V1.81634C54.6316 0.8144 53.7937 0 52.7627 0H48.2451C47.2142 0 46.3762 0.8144 46.3762 1.81634V12.6142H42.3265C40.7748 12.6142 39.9263 14.3689 40.9149 15.525L49.0963 25.1026Z" fill="white"/>
</g>
<mask id="mask1_2084_608" style="mask-type:luminance" maskUnits="userSpaceOnUse" x="0" y="57" width="101" height="30">
<path d="M0 57.7737H101V86.8146H0V57.7737Z" fill="white"/>
</mask>
<g mask="url(#mask1_2084_608)">
<path d="M97.1511 58.421H89.8182V63.5592H93.334C94.6319 63.5592 95.6734 64.5817 95.6734 65.8303V75.1715C95.6734 76.4303 94.6213 77.4425 93.334 77.4425H7.6632C6.36528 77.4425 5.32377 76.42 5.32377 75.1715V65.8303C5.32377 64.5714 6.37585 63.5592 7.6632 63.5592H11.179V58.421H3.84874C1.734 58.421 0.0210571 60.0832 0.0210571 62.1359V83.0997C0.0210571 85.1524 1.734 86.8146 3.84874 86.8146H97.1511C99.2658 86.8146 100.976 85.1524 100.976 83.0997V62.1359C100.976 60.0832 99.2658 58.421 97.1511 58.421Z" fill="white"/>
</g>
<path d="M50.5 63.5901C57.6822 63.5901 63.5056 57.9355 63.5056 50.9579C63.5056 43.9803 57.6822 38.3231 50.5 38.3231C43.3152 38.3231 37.4917 43.9803 37.4917 50.9579C37.4917 57.9355 43.3152 63.5901 50.5 63.5901ZM43.7936 49.7813C44.6765 48.9232 46.1198 48.9232 47.0027 49.7813L48.7236 51.4537L53.8254 46.498C54.7083 45.6425 56.1516 45.6425 57.0345 46.498C57.9174 47.356 57.9174 48.7588 57.0345 49.6168L50.3282 56.1295C49.8814 56.5636 49.3078 56.7794 48.7236 56.7794C48.1394 56.7794 47.5658 56.5636 47.1191 56.1295L43.7936 52.8976C42.9107 52.042 42.9107 50.647 43.7936 49.7813Z" fill="white"/>
<path d="M20.0107 71.8703H80.9972C83.0379 71.8703 84.6953 70.2595 84.6953 68.2761V33.6371C84.6953 31.6564 83.0379 30.0455 80.9972 30.0455H20.0107C17.97 30.0455 16.3125 31.6564 16.3125 33.6371V68.2659C16.302 70.2595 17.97 71.8703 20.0107 71.8703ZM21.573 42.1536C25.2288 41.4728 28.0652 38.7059 28.7789 35.1554H72.2316C72.9427 38.7059 75.7791 41.4626 79.4349 42.1536V59.7622C75.7791 60.443 72.9427 63.2099 72.2316 66.7604H28.7684C28.0546 63.2099 25.2183 60.4533 21.5624 59.7622V42.1536H21.573Z" fill="white"/>
<path d="M71.2324 54.4878C73.2414 54.4878 74.8671 52.9078 74.8671 50.9579C74.8671 49.008 73.2414 47.428 71.2324 47.428C69.2234 47.428 67.5977 49.008 67.5977 50.9579C67.5977 52.9078 69.2234 54.4878 71.2324 54.4878Z" fill="white"/>
<path d="M29.7649 54.4878C31.7739 54.4878 33.3997 52.9078 33.3997 50.9579C33.3997 49.008 31.7739 47.428 29.7649 47.428C27.7586 47.428 26.1329 49.008 26.1329 50.9579C26.1434 52.9078 27.7692 54.4878 29.7649 54.4878Z" fill="white"/>
</svg>
