<svg width="80" height="90" viewBox="0 0 80 90" fill="none" xmlns="http://www.w3.org/2000/svg">
<path fill-rule="evenodd" clip-rule="evenodd" d="M58.4105 78.9148V62.2202C58.4105 60.6375 56.9174 59.2412 55.0309 59.2412H40.4977C40.3356 59.2005 40.1736 59.1802 39.9884 59.1802C39.8225 59.1802 39.6605 59.2005 39.4985 59.2412H25.0579C23.1482 59.2412 21.5895 60.5561 21.5895 62.2202V78.9148H4.35571V20.287C4.35571 19.5686 5.00772 18.9755 5.82176 18.9755H74.3403C75.1543 18.9755 75.8063 19.5686 75.8063 20.287V78.9148H58.4105ZM41.4776 78.9148V61.7864H55.0309C55.2894 61.7864 55.5208 62.0135 55.5208 62.2202V78.9148H41.4776ZM38.5185 61.7864V78.9148H24.4753V62.2202C24.4753 62.0135 24.7107 61.7864 25.0579 61.7864H38.5185ZM21.5895 32.6708H12.9707C12.1566 32.6708 11.5046 32.0946 11.5046 31.3761V24.0455C11.5046 23.327 12.1566 22.7509 12.9707 22.7509H21.5895C22.4267 22.7509 23.0787 23.327 23.0787 24.0455V31.3761C23.0787 32.0946 22.4267 32.6708 21.5895 32.6708ZM14.4599 30.1459H20.189V25.3605H14.4599V30.1459ZM36.7014 32.6708H28.0864C27.2724 32.6708 26.6204 32.0946 26.6204 31.3761V24.0455C26.6204 23.327 27.2724 22.7509 28.0864 22.7509H36.7014C37.5424 22.7509 38.1944 23.327 38.1944 24.0455V31.3761C38.1944 32.0946 37.5424 32.6708 36.7014 32.6708ZM29.5756 30.1459H35.3048V25.3605H29.5756V30.1459ZM51.9097 32.6708H43.2948C42.4576 32.6708 41.8017 32.0946 41.8017 31.3761V24.0455C41.8017 23.327 42.4576 22.7509 43.2948 22.7509H51.9097C52.7276 22.7509 53.3796 23.327 53.3796 24.0455V31.3761C53.3102 32.0946 52.6582 32.6708 51.9097 32.6708ZM44.6914 30.1459H50.4205V25.3605H44.6914V30.1459ZM67.0949 32.6708H58.4799C57.662 32.6708 57.01 32.0946 57.01 31.3761V24.0455C57.01 23.327 57.662 22.7509 58.4799 22.7509H67.0949C67.936 22.7509 68.588 23.327 68.588 24.0455V31.3761C68.4954 32.0946 67.8395 32.6708 67.0949 32.6708ZM59.8765 30.1459H65.6289V25.3605H59.8765V30.1459ZM21.5895 44.5393H12.9707C12.1566 44.5393 11.5046 43.9632 11.5046 43.2447V35.9344C11.5046 35.1956 12.1566 34.6229 12.9707 34.6229H21.5895C22.4267 34.6229 23.0787 35.1956 23.0787 35.9344V43.326C23.0787 43.9632 22.4267 44.5393 21.5895 44.5393ZM14.4599 42.0145H20.189V37.1681H14.4599V42.0145ZM36.7014 44.5393H28.0864C27.2724 44.5393 26.6204 43.9632 26.6204 43.2447V35.9344C26.6204 35.1956 27.2724 34.6229 28.0864 34.6229H36.7014C37.5424 34.6229 38.1944 35.1956 38.1944 35.9344V43.326C38.1944 43.9632 37.5424 44.5393 36.7014 44.5393ZM29.5756 42.0145H35.3048V37.1681H29.5756V42.0145ZM51.9097 44.5393H43.2948C42.4576 44.5393 41.8017 43.9632 41.8017 43.2447V35.9344C41.8017 35.1956 42.4576 34.6229 43.2948 34.6229H51.9097C52.7276 34.6229 53.3796 35.1956 53.3796 35.9344V43.326C53.3102 43.9632 52.6582 44.5393 51.9097 44.5393ZM44.6914 42.0145H50.4205V37.1681H44.6914V42.0145ZM67.0949 44.5393H58.4799C57.662 44.5393 57.01 43.9632 57.01 43.2447V35.9344C57.01 35.1956 57.662 34.6229 58.4799 34.6229H67.0949C67.936 34.6229 68.588 35.1956 68.588 35.9344V43.326C68.4954 43.9632 67.8395 44.5393 67.0949 44.5393ZM59.8765 42.0145H65.6289V37.1681H59.8765V42.0145ZM21.5895 56.4282H12.9707C12.1566 56.4282 11.5046 55.8521 11.5046 55.1133V47.803C11.5046 47.0845 12.1566 46.5118 12.9707 46.5118H21.5895C22.4267 46.5118 23.0787 47.0845 23.0787 47.803V55.1133C23.0787 55.8521 22.4267 56.4282 21.5895 56.4282ZM14.4599 53.883H20.189V49.0366H14.4599V53.883ZM36.7014 56.4282H28.0864C27.2724 56.4282 26.6204 55.8521 26.6204 55.1133V47.803C26.6204 47.0845 27.2724 46.5118 28.0864 46.5118H36.7014C37.5424 46.5118 38.1944 47.0845 38.1944 47.803V55.1133C38.1944 55.8521 37.5424 56.4282 36.7014 56.4282ZM29.5756 53.883H35.3048V49.0366H29.5756V53.883ZM51.9097 56.4282H43.2948C42.4576 56.4282 41.8017 55.8521 41.8017 55.1133V47.803C41.8017 47.0845 42.4576 46.5118 43.2948 46.5118H51.9097C52.7276 46.5118 53.3796 47.0845 53.3796 47.803V55.1133C53.3102 55.8521 52.6582 56.4282 51.9097 56.4282ZM44.6914 53.883H50.4205V49.0366H44.6914V53.883ZM67.0949 56.4282H58.4799C57.662 56.4282 57.01 55.8521 57.01 55.1133V47.803C57.01 47.0845 57.662 46.5118 58.4799 46.5118H67.0949C67.936 46.5118 68.588 47.0845 68.588 47.803V55.1133C68.4954 55.8521 67.8395 56.4282 67.0949 56.4282ZM59.8765 53.883H65.6289V49.0366H59.8765V53.883Z" fill="white"/>
<mask id="mask0_2084_656" style="mask-type:luminance" maskUnits="userSpaceOnUse" x="0" y="80" width="80" height="10">
<path d="M0 80.6636H80V89.1227H0V80.6636Z" fill="white"/>
</mask>
<g mask="url(#mask0_2084_656)">
<path fill-rule="evenodd" clip-rule="evenodd" d="M78.5301 89.099H1.46605C0.652006 89.099 0 88.5025 0 87.7841V82.6496C0 81.9108 0.652006 81.338 1.46605 81.338H78.5301C79.348 81.338 80 81.9108 80 82.6496V87.7841C79.9306 88.5025 79.348 89.099 78.5301 89.099Z" fill="white"/>
</g>
<path fill-rule="evenodd" clip-rule="evenodd" d="M7.05634 16.5523V14.8476C7.05634 14.1291 7.70834 13.553 8.54553 13.553H71.2886C72.1258 13.553 72.7778 14.1291 72.7778 14.8476V16.5523H7.05634Z" fill="white"/>
<path fill-rule="evenodd" clip-rule="evenodd" d="M9.52545 11.1094V2.17579C9.52545 1.02689 10.6636 0 12.064 0H67.2608C68.6574 0 69.8225 0.945555 69.8225 2.17579V11.1094H9.52545ZM21.0995 6.85951H19.7029V8.80823C19.7029 9.46571 19.0509 10.0419 18.233 10.0419C17.3958 10.0419 16.7438 9.46571 16.7438 8.83195V2.38253C16.7438 1.64371 17.3958 1.06756 18.233 1.06756C19.0509 1.06756 19.7029 1.64371 19.7029 2.38253V4.24991H21.0995V2.38253C21.0995 1.64371 21.7515 1.06756 22.5887 1.06756C23.4066 1.06756 24.0586 1.64371 24.0586 2.38253V8.80823C23.9853 9.46571 23.3102 10.0419 22.5887 10.0419C21.7515 10.0419 21.0995 9.46571 21.0995 8.83195V6.85951ZM41.8017 10.0419C40.9876 10.0419 40.3356 9.46571 40.3356 8.83195V3.7585H39.919C39.1011 3.7585 38.4259 3.16202 38.4259 2.44353C38.4259 1.72504 39.1705 1.21329 39.919 1.21329H43.7847C44.5988 1.21329 45.2508 1.78605 45.2508 2.52487C45.2508 3.24335 44.5988 3.7585 43.7847 3.7585H43.2947V8.83195C43.2947 9.46571 42.6196 10.0419 41.8017 10.0419ZM53.0517 6.94085H50.6751V7.51699H53.0517C53.8927 7.51699 54.5447 8.08975 54.5447 8.83195C54.5447 9.55044 53.8927 10.0419 53.0517 10.0419H49.2091C48.3719 10.0419 47.7199 9.46571 47.7199 8.83195V2.44353C47.7199 1.95211 48.0671 1.56237 48.5339 1.35563C48.696 1.2743 48.9082 1.23363 49.0934 1.21329H53.0517C53.8927 1.21329 54.5447 1.78605 54.5447 2.52487C54.5447 3.24335 53.8927 3.7585 53.0517 3.7585H50.6751V4.33464H53.0517C53.8927 4.33464 54.5447 4.90739 54.5447 5.62588C54.5447 6.3647 53.8927 6.94085 53.0517 6.94085ZM61.2731 10.0419H58.4799C57.662 10.0419 57.01 9.46571 57.01 8.83195V2.52487C57.01 1.78605 57.662 1.21329 58.4799 1.21329C59.294 1.21329 59.9691 1.78605 59.9691 2.52487V7.59833H61.2731C62.0872 7.59833 62.7392 8.17447 62.7392 8.89296C62.7392 9.61144 62.0872 10.0419 61.2731 10.0419ZM31.6975 10.0419C28.9005 10.0419 26.6204 8.02874 26.6204 5.62588C26.6204 3.16202 28.9005 1.1489 31.6975 1.1489C34.4907 1.1489 36.7014 3.16202 36.7014 5.62588C36.7014 8.08975 34.4213 10.0419 31.6975 10.0419ZM31.6975 3.67716C30.463 3.67716 29.483 4.53798 29.483 5.62588C29.483 6.71378 30.463 7.51699 31.6975 7.51699C32.9321 7.51699 33.8387 6.65277 33.8387 5.62588C33.8387 4.53798 32.8588 3.67716 31.6975 3.67716Z" fill="white"/>
</svg>
