<svg width="79" height="73" viewBox="0 0 79 73" fill="none" xmlns="http://www.w3.org/2000/svg">
<mask id="mask0_2084_589" style="mask-type:luminance" maskUnits="userSpaceOnUse" x="0" y="13" width="34" height="45">
<path d="M0 13.2778H33.2164V57.452H0V13.2778Z" fill="white"/>
</mask>
<g mask="url(#mask0_2084_589)">
<path d="M18.6507 36.8251L7.99687 54.4987C6.56853 56.8681 3.76767 57.3957 1.78679 55.6668C0.634709 54.6647 -0.00305176 53.0984 -0.00305176 51.489C-0.00305176 50.8353 0.102751 50.1749 0.320237 49.5411L8.16734 26.6742C8.69635 25.1278 9.69267 23.8635 10.9623 23.1268L25.5074 14.6816C26.7976 13.9316 28.2759 13.779 29.6572 14.2502L32.6168 15.2623C32.6168 15.2623 19.0798 36.1116 18.6507 36.8251Z" fill="white"/>
</g>
<mask id="mask1_2084_589" style="mask-type:luminance" maskUnits="userSpaceOnUse" x="6" y="58" width="13" height="15">
<path d="M6.13074 58.3015H18.1688V72.2287H6.13074V58.3015Z" fill="white"/>
</mask>
<g mask="url(#mask1_2084_589)">
<path d="M17.6898 66.0566L17.6075 66.186C17.6045 66.1926 17.5957 66.1993 17.5898 66.2026L7.97052 71.8438C7.321 72.2255 6.56568 71.6149 6.67149 70.7919L8.24678 58.6367C8.24678 58.6268 8.24972 58.6168 8.2556 58.6102C8.28205 58.567 8.34083 58.5836 8.34965 58.6367C8.59946 60.4884 9.3489 62.1476 10.4305 63.4152C11.7706 64.9881 13.6251 65.9637 15.6736 65.9637H17.6457C17.6898 65.9637 17.7133 66.0168 17.6898 66.0566Z" fill="white"/>
</g>
<path d="M53.7276 8.82132L28.7903 48.4228C28.7344 48.5124 28.6463 48.5655 28.5522 48.5655H15.6736C15.5002 48.5655 15.3297 48.5721 15.1622 48.5854C14.9124 48.6053 14.7566 48.2867 14.9006 48.0578L25.0901 31.8741L44.3757 1.24547C45.2163 -0.0918298 46.8533 -0.400438 48.0318 0.555253L53.1163 4.67335C54.2948 5.62905 54.5681 7.48402 53.7276 8.82132Z" fill="white"/>
<mask id="mask2_2084_589" style="mask-type:luminance" maskUnits="userSpaceOnUse" x="9" y="19" width="70" height="48">
<path d="M9.8927 19.2244H79.0001V66.7966H9.8927V19.2244Z" fill="white"/>
</mask>
<g mask="url(#mask2_2084_589)">
<path d="M70.1831 31.9138C68.9869 31.9138 68.02 30.8154 68.02 29.4615C68.02 28.1076 68.9869 27.0125 70.1831 27.0125C71.3763 27.0125 72.3432 28.1076 72.3432 29.4615C72.3432 30.8154 71.3763 31.9138 70.1831 31.9138ZM75.5408 19.4102H64.8223C62.8121 19.4102 60.7871 21.003 60.7871 23.286V25.0149L48.8225 20.8337L37.14 39.6821L39.3443 40.4287C40.3288 40.7606 41.1811 41.4508 41.7689 42.3667C42.3508 43.2759 42.7006 44.3278 42.7006 45.5324C42.7006 48.5023 40.6668 50.8385 38.1481 50.8385H15.6501C14.1924 50.8385 12.8728 51.6117 11.9206 52.7366C11.897 52.7631 11.8765 52.8295 11.853 52.856C11.5385 53.2377 11.2681 53.6923 11.0477 54.1602C10.6156 55.0561 10.3717 56.1014 10.3717 57.2031C10.3717 60.621 12.7023 63.3985 15.5972 63.4317C26.445 63.5512 51.2442 63.7635 61.369 63.5611C61.851 65.2004 63.2177 66.3585 64.8223 66.3585H75.5408C77.554 66.3585 79 64.5533 79 62.2703V23.286C79 21.003 77.554 19.4102 75.5408 19.4102Z" fill="white"/>
</g>
</svg>
