<svg width="121" height="104" viewBox="0 0 121 104" fill="none" xmlns="http://www.w3.org/2000/svg">
<path d="M33.329 92.7198C33.0841 92.7198 32.8248 92.6334 32.6195 92.4497C31.5752 91.5314 30.5849 90.5591 29.6702 89.576C26.6776 86.3781 24.2324 82.7805 22.3922 78.902C22.1329 78.3619 22.3598 77.7136 22.8999 77.4652C23.4365 77.2059 24.0847 77.4327 24.3296 77.9729C26.0762 81.6569 28.3989 85.0601 31.2403 88.1067C32.1154 89.0466 33.0517 89.9541 34.042 90.8292C34.4814 91.2181 34.5246 91.9095 34.1392 92.3525C33.9232 92.601 33.6315 92.7198 33.329 92.7198Z" fill="#40033F"/>
<path d="M20.6817 72.1498C20.2063 72.1498 19.767 71.8257 19.6373 71.3395C18.755 67.9004 18.3013 64.3352 18.3013 60.7484C18.3013 55.8544 19.1295 51.0468 20.7681 46.4769C20.9734 45.9151 21.5856 45.6234 22.1437 45.8287C22.7055 46.034 22.9972 46.6498 22.792 47.2115C21.2398 51.5438 20.4548 56.1029 20.4548 60.7484C20.4548 64.1515 20.8869 67.5331 21.726 70.7957C21.8773 71.3719 21.5315 71.9661 20.9517 72.1174C20.8653 72.139 20.7681 72.1498 20.6817 72.1498Z" fill="#40033F"/>
<mask id="mask0_2084_436" style="mask-type:luminance" maskUnits="userSpaceOnUse" x="38" y="53" width="65" height="51">
<path d="M38.1978 53.366H102.731V103.023H38.1978V53.366Z" fill="white"/>
</mask>
<g mask="url(#mask0_2084_436)">
<path d="M60.2875 102.886C60.093 102.886 59.8877 102.886 59.6933 102.875C52.4477 102.789 45.2813 100.79 39.026 97.0845C38.5075 96.782 38.3454 96.123 38.6479 95.6045C38.9504 95.0859 39.6166 94.9238 40.1244 95.2263C46.0556 98.7375 52.8474 100.639 59.7689 100.715C59.9742 100.725 60.1362 100.725 60.2875 100.725C71.4079 100.725 81.7289 96.2419 89.3311 88.1068C96.285 80.6847 100.117 70.9687 100.117 60.7485C100.117 58.8471 99.987 56.9349 99.7205 55.055C99.6341 54.4608 100.041 53.9207 100.635 53.8342C101.226 53.7478 101.762 54.1583 101.849 54.7525C102.13 56.7296 102.27 58.7499 102.27 60.7485C102.27 71.5233 98.2332 81.7651 90.9012 89.5869C83.0002 98.0353 71.8365 102.886 60.2875 102.886Z" fill="#40033F"/>
</g>
<path d="M98.6762 47.6004C98.2333 47.6004 97.8227 47.3303 97.6643 46.8982C95.8961 42.1014 93.2492 37.7368 89.8137 33.9303C82.28 25.5683 71.5124 20.7716 60.2875 20.7716C49.059 20.7716 38.2914 25.5683 30.7577 33.9195C29.1552 35.7021 27.7003 37.6395 26.4399 39.6814C26.1302 40.1892 25.4604 40.3404 24.9562 40.0271C24.4485 39.7138 24.2972 39.044 24.6105 38.5362C25.9358 36.3863 27.4735 34.3408 29.1624 32.4718C37.1102 23.6669 48.4432 18.6108 60.2875 18.6108C72.1282 18.6108 83.4648 23.6669 91.409 32.4718C95.0354 36.4835 97.8227 41.0859 99.6881 46.1419C99.8898 46.7037 99.6125 47.3195 99.0507 47.5248C98.9211 47.5788 98.8022 47.6004 98.6762 47.6004Z" fill="#40033F"/>
<mask id="mask1_2084_436" style="mask-type:luminance" maskUnits="userSpaceOnUse" x="40" y="60" width="43" height="44">
<path d="M40.0416 60.7412H82.4492V103.023H40.0416V60.7412Z" fill="white"/>
</mask>
<g mask="url(#mask1_2084_436)">
<path d="M60.2875 102.886C60.093 102.886 59.8877 102.886 59.6933 102.875C51.8787 102.475 44.7844 93.8433 41.212 80.3605C40.8122 78.8912 40.4557 77.3463 40.1568 75.7581C40.0488 75.1748 40.4341 74.613 41.0175 74.4941C41.5973 74.3861 42.1591 74.775 42.2743 75.3584C42.566 76.8817 42.9009 78.3834 43.2863 79.7987C46.6246 92.3524 52.9555 100.369 59.8229 100.725C59.9742 100.725 60.1362 100.725 60.2875 100.725C67.3494 100.725 73.8604 92.709 77.2851 79.7987C78.7148 74.4617 79.5034 68.689 79.6403 62.6282C79.6511 62.0448 80.1372 61.5695 80.717 61.5695C80.7278 61.5695 80.7278 61.5695 80.7386 61.5695C81.3328 61.5803 81.8046 62.0772 81.7938 62.6714C81.6533 68.9051 80.8359 74.8506 79.3738 80.3497C75.679 94.2539 68.3722 102.886 60.2875 102.886Z" fill="#40033F"/>
</g>
<path d="M40.0164 67.2953C39.4546 67.2953 38.9829 66.8524 38.9396 66.2906C38.8208 64.4324 38.756 62.5742 38.756 60.7484C38.756 54.1798 39.4978 47.9137 40.9527 42.123C44.5575 27.621 51.9651 18.6108 60.2875 18.6108C68.6062 18.6108 76.0139 27.621 79.6187 42.123C80.5586 45.8502 81.2032 49.8152 81.5381 53.9313C81.5813 54.5255 81.1384 55.0441 80.5478 55.0981C79.9644 55.1521 79.4386 54.7092 79.3846 54.1042C79.0605 50.1069 78.4375 46.25 77.5336 42.6416C74.2277 29.3604 67.4575 20.7716 60.2875 20.7716C53.1175 20.7716 46.3437 29.3604 43.0414 42.6416C41.6297 48.2702 40.9095 54.3635 40.9095 60.7484C40.9095 62.5202 40.9743 64.3352 41.0932 66.1394C41.1364 66.7335 40.6826 67.2521 40.092 67.2845C40.0596 67.2953 40.038 67.2953 40.0164 67.2953Z" fill="#40033F"/>
<path d="M33.3289 92.7198C33.084 92.7198 32.8248 92.6334 32.6195 92.4497C31.5751 91.5314 30.5848 90.5591 29.6701 89.576C29.2812 89.1655 29.2812 88.5172 29.6701 88.0959C33.1597 84.3579 37.2362 81.3329 41.7701 79.1073C42.8037 78.5888 43.8912 78.1134 44.9788 77.6813C45.537 77.4652 46.1528 77.7353 46.376 78.2863C46.5921 78.8372 46.322 79.4639 45.7746 79.6907C44.7411 80.1013 43.7076 80.555 42.728 81.052C38.7127 83.0074 35.0971 85.6327 31.9533 88.8414C32.6195 89.522 33.3181 90.181 34.042 90.8292C34.4813 91.2181 34.5245 91.9096 34.1392 92.3525C33.9231 92.601 33.6314 92.7198 33.3289 92.7198Z" fill="#40033F"/>
<mask id="mask2_2084_436" style="mask-type:luminance" maskUnits="userSpaceOnUse" x="38" y="74" width="54" height="30">
<path d="M38.1978 74.5698H91.6682V103.023H38.1978V74.5698Z" fill="white"/>
</mask>
<g mask="url(#mask2_2084_436)">
<path d="M60.2875 102.886C60.0931 102.886 59.8878 102.886 59.6933 102.875C59.2756 102.886 58.7786 102.864 58.3069 102.832C57.9395 102.821 57.5398 102.799 57.1545 102.767C56.906 102.756 56.6251 102.724 56.337 102.691C56.1534 102.691 55.9805 102.659 55.7968 102.637C55.6024 102.627 55.3575 102.594 55.109 102.562C54.396 102.475 53.7946 102.389 53.1716 102.27C52.8475 102.216 52.4909 102.151 52.1488 102.086C49.8009 101.633 47.4529 100.952 45.1733 100.066C44.752 99.9041 44.3523 99.7313 43.9453 99.5692C43.578 99.418 43.2683 99.2775 42.9658 99.1263C41.6622 98.5429 40.3261 97.8515 39.0369 97.0844C38.5183 96.7819 38.3563 96.1229 38.6588 95.6043C38.9613 95.0857 39.6275 94.9237 40.1353 95.2262C41.3489 95.95 42.6093 96.5982 43.8697 97.1708C44.1722 97.3221 44.4603 97.4409 44.752 97.5598C45.1733 97.7326 45.5587 97.8947 45.9476 98.0567C48.1119 98.8994 50.3302 99.5368 52.5558 99.969C52.8799 100.034 53.2148 100.099 53.5353 100.153C54.1403 100.261 54.7093 100.347 55.2927 100.423C55.5916 100.455 55.8076 100.488 56.0453 100.509C56.283 100.542 56.3874 100.542 56.5387 100.552C56.7872 100.585 57.0464 100.617 57.2949 100.617C57.7019 100.65 58.0584 100.671 58.4221 100.682C58.8975 100.714 59.3404 100.725 59.769 100.725C59.9742 100.725 60.1363 100.725 60.2875 100.725C71.0731 100.725 81.0952 96.5118 88.6217 88.8413C85.467 85.6326 81.8478 83.0181 77.8541 81.0519C72.3551 78.3294 66.4456 76.9573 60.2875 76.9573C58.3825 76.9573 56.4739 77.087 54.6012 77.3571C54.0106 77.4327 53.4705 77.033 53.384 76.4388C53.3012 75.8446 53.7081 75.3044 54.3023 75.218C56.2722 74.9371 58.2853 74.7966 60.2875 74.7966C66.7769 74.7966 73.0105 76.2443 78.8012 79.1073C83.3351 81.3328 87.4153 84.3578 90.9012 88.0958C91.2902 88.5064 91.2902 89.1546 90.9012 89.5759C83.0002 98.0351 71.8365 102.886 60.2875 102.886Z" fill="#40033F"/>
</g>
<path d="M60.2875 47.7841C48.4432 47.7841 37.1103 42.728 29.1624 33.9195C28.7987 33.509 28.7987 32.8824 29.1624 32.4718C37.1103 23.6669 48.4432 18.6108 60.2875 18.6108C72.1282 18.6108 83.4648 23.6669 91.409 32.4718C91.7727 32.8824 91.7727 33.509 91.409 33.9195C83.4648 42.728 72.1282 47.7841 60.2875 47.7841ZM31.424 33.1957C38.9289 41.1075 49.3795 45.6234 60.2875 45.6234C71.1919 45.6234 81.6426 41.1075 89.1475 33.1957C81.6426 25.2874 71.1919 20.7716 60.2875 20.7716C49.3795 20.7716 38.9289 25.2874 31.424 33.1957Z" fill="#40033F"/>
<path d="M78.1133 61.8288H66.5715C65.9809 61.8288 65.4948 61.3426 65.4948 60.7484C65.4948 60.1543 65.9809 59.6681 66.5715 59.6681H78.1133C78.7039 59.6681 79.1901 60.1543 79.1901 60.7484C79.1901 61.3426 78.7039 61.8288 78.1133 61.8288Z" fill="#40033F"/>
<path d="M28.7231 61.8288H19.378C18.7874 61.8288 18.3013 61.3426 18.3013 60.7484C18.3013 60.1543 18.7874 59.6681 19.378 59.6681H28.7231C29.3137 59.6681 29.7999 60.1543 29.7999 60.7484C29.7999 61.3426 29.3137 61.8288 28.7231 61.8288Z" fill="#40033F"/>
<path d="M58.1556 61.8288H32.7492C32.1586 61.8288 31.6725 61.3426 31.6725 60.7484C31.6725 60.1543 32.1586 59.6681 32.7492 59.6681H58.1556C58.7462 59.6681 59.2324 60.1543 59.2324 60.7484C59.2324 61.3426 58.7462 61.8288 58.1556 61.8288Z" fill="#40033F"/>
<path d="M101.193 61.8288H95.2191C94.6285 61.8288 94.1423 61.3426 94.1423 60.7484C94.1423 60.1543 94.6285 59.6681 95.2191 59.6681H101.193C101.784 59.6681 102.27 60.1543 102.27 60.7484C102.27 61.3426 101.784 61.8288 101.193 61.8288Z" fill="#40033F"/>
<path d="M60.2874 59.0954C59.6933 59.0954 59.2107 58.6093 59.2107 58.0151V19.6912C59.2107 19.097 59.6933 18.6108 60.2874 18.6108C60.878 18.6108 61.3642 19.097 61.3642 19.6912V58.0151C61.3642 58.6093 60.878 59.0954 60.2874 59.0954Z" fill="#40033F"/>
<mask id="mask3_2084_436" style="mask-type:luminance" maskUnits="userSpaceOnUse" x="58" y="67" width="5" height="37">
<path d="M58.4797 67.1945H62.1674V103.023H58.4797V67.1945Z" fill="white"/>
</mask>
<g mask="url(#mask3_2084_436)">
<path d="M60.2874 102.886C59.6933 102.886 59.2107 102.4 59.2107 101.805V68.8078C59.2107 68.2136 59.6933 67.7274 60.2874 67.7274C60.878 67.7274 61.3642 68.2136 61.3642 68.8078V101.805C61.3642 102.4 60.878 102.886 60.2874 102.886Z" fill="#40033F"/>
</g>
<mask id="mask4_2084_436" style="mask-type:luminance" maskUnits="userSpaceOnUse" x="0" y="29" width="121" height="74">
<path d="M0 29.3965H121V102.227H0V29.3965Z" fill="white"/>
</mask>
<g mask="url(#mask4_2084_436)">
<path d="M5.95637 101.881C5.67548 101.881 5.39458 101.773 5.18932 101.568L0.464553 96.836C0.0756257 96.4471 0.0432142 95.8313 0.378125 95.4099L12.2296 80.1877C12.597 79.7123 13.274 79.6367 13.7385 80.004C14.2103 80.3713 14.2859 81.052 13.9222 81.5165L2.66128 95.9825L5.84833 99.1804L30.5201 67.4899C30.8874 67.0253 31.5428 66.9389 32.0182 67.2954L49.7252 80.6198L69.9423 54.6877C70.2988 54.2339 70.9543 54.1367 71.4296 54.4824L88.0491 66.7228L112.444 41.1184C112.649 40.9131 112.915 40.7835 113.207 40.7835C113.207 40.7835 113.207 40.7835 113.218 40.7835C113.51 40.7835 113.78 40.9023 113.981 41.1076L117.953 45.1373L118.807 31.6292L105.338 32.3099L108.817 35.8426C109.224 36.2568 109.224 36.9266 108.824 37.3479L87.779 59.5817C87.4045 59.9814 86.7995 60.0246 86.3602 59.7113L68.9844 46.9199C68.4982 46.5634 68.4046 45.8935 68.7467 45.4074C69.1032 44.9212 69.7695 44.824 70.2556 45.1697L86.8751 57.3993L106.556 36.6241L102.119 32.1154C101.816 31.8129 101.734 31.3591 101.881 30.9702C102.033 30.5705 102.411 30.3004 102.828 30.2788L119.905 29.4145C120.226 29.3929 120.507 29.5117 120.723 29.7386C120.935 29.9547 121.043 30.2572 121.032 30.5705L119.956 47.6869C119.934 48.1083 119.657 48.4864 119.257 48.6268C118.861 48.7781 118.418 48.6809 118.115 48.3784L113.229 43.4195L88.9422 68.8943C88.5677 69.2833 87.9627 69.3373 87.5341 69.0132L70.9867 56.8376L50.7696 82.7805C50.4131 83.2451 49.7468 83.3315 49.2751 82.975L31.5644 69.6506L6.79545 101.471C6.60098 101.719 6.32009 101.86 6.00679 101.881C5.99598 101.881 5.97437 101.881 5.95637 101.881Z" fill="#40033F"/>
</g>
<path d="M17.916 75.7149C17.6783 75.7149 17.4514 75.6393 17.2462 75.4881C16.7744 75.1207 16.6988 74.4401 17.0625 73.9756L29.357 58.1771C29.7135 57.7126 30.3797 57.6262 30.8551 57.9827L48.5621 71.3071L62.8804 52.9482C63.2478 52.4837 63.9248 52.3972 64.3893 52.7646C64.8503 53.1319 64.9367 53.8125 64.5694 54.2771L49.6064 73.4678C49.2427 73.9324 48.5837 74.0188 48.112 73.6623L30.4013 60.3379L18.7659 75.3044C18.5498 75.5745 18.2365 75.7149 17.916 75.7149Z" fill="#40033F"/>
<path d="M16.1478 15.9101C15.8489 15.9101 15.5464 15.7805 15.3303 15.532L5.64308 4.18824C5.25415 3.73449 5.30817 3.05386 5.76192 2.66493C6.21207 2.276 6.89269 2.33002 7.27802 2.78377L16.9688 14.1275C17.3542 14.5813 17.3001 15.2619 16.85 15.6508C16.6447 15.8237 16.3962 15.9101 16.1478 15.9101Z" fill="#40033F"/>
<path d="M25.8386 27.2539C25.5361 27.2539 25.2336 27.1242 25.0211 26.8757L20.1847 21.2255C19.7994 20.7717 19.8534 20.0911 20.3036 19.7022C20.7573 19.3132 21.4343 19.3673 21.8233 19.821L26.6561 25.4713C27.045 25.925 26.991 26.6056 26.5372 26.9946C26.332 27.1674 26.0871 27.2539 25.8386 27.2539Z" fill="#40033F"/>
<path d="M30.1455 24.0126C29.6269 24.0126 29.1732 23.6345 29.0795 23.1051L25.8493 3.65872C25.752 3.07533 26.1482 2.51354 26.7316 2.41631C27.3222 2.31908 27.8731 2.71881 27.9704 3.3022L31.197 22.7486C31.2943 23.332 30.8981 23.8938 30.3148 23.991C30.2607 24.0126 30.1959 24.0126 30.1455 24.0126Z" fill="#40033F"/>
<path d="M22.6084 30.4948C22.5003 30.4948 22.3815 30.4732 22.2626 30.4408L2.88823 23.9586C2.32645 23.775 2.01314 23.1592 2.20761 22.5866C2.39127 22.0248 3.00347 21.7115 3.57606 21.906L22.9541 28.3881C23.5122 28.5718 23.8256 29.1876 23.6311 29.7602C23.4798 30.2139 23.0621 30.4948 22.6084 30.4948Z" fill="#40033F"/>
<mask id="mask5_2084_436" style="mask-type:luminance" maskUnits="userSpaceOnUse" x="103" y="0" width="12" height="13">
<path d="M103.653 0H114.716V12.8022H103.653V0Z" fill="white"/>
</mask>
<g mask="url(#mask5_2084_436)">
<path d="M105.057 12.2368C104.809 12.2368 104.564 12.1504 104.359 11.9775C103.905 11.5886 103.851 10.908 104.24 10.4542L112.638 0.622986C113.023 0.165635 113.704 0.111616 114.154 0.500545C114.608 0.893075 114.662 1.5737 114.273 2.02745L105.875 11.8587C105.662 12.1072 105.36 12.2368 105.057 12.2368Z" fill="#40033F"/>
</g>
<path d="M94.0775 25.0931C93.829 25.0931 93.5841 25.0067 93.3789 24.8338C92.9251 24.4449 92.8711 23.7643 93.26 23.3105L98.2981 17.401C98.687 16.9472 99.364 16.8932 99.8142 17.2821C100.268 17.671 100.322 18.3517 99.933 18.8054L94.895 24.715C94.6825 24.9635 94.38 25.0931 94.0775 25.0931Z" fill="#40033F"/>
<mask id="mask6_2084_436" style="mask-type:luminance" maskUnits="userSpaceOnUse" x="87" y="0" width="8" height="23">
<path d="M87.9807 0H94.434V22.0213H87.9807V0Z" fill="white"/>
</mask>
<g mask="url(#mask6_2084_436)">
<path d="M89.7704 21.852C89.7164 21.852 89.6552 21.852 89.5904 21.8412C89.007 21.744 88.6109 21.1822 88.7045 20.5988L91.9348 1.15236C92.032 0.565363 92.583 0.165631 93.1736 0.262863C93.7534 0.360094 94.1531 0.925482 94.0559 1.50887L90.8256 20.9553C90.7392 21.4739 90.289 21.852 89.7704 21.852Z" fill="#40033F"/>
</g>
<path d="M97.3078 28.3342C96.854 28.3342 96.4363 28.0425 96.285 27.5995C96.1014 27.0377 96.4039 26.4219 96.9621 26.2275L116.34 19.7453C116.909 19.5509 117.514 19.8642 117.698 20.426C117.881 20.9877 117.579 21.6035 117.017 21.798L97.6427 28.2801C97.5346 28.3126 97.4158 28.3342 97.3078 28.3342Z" fill="#40033F"/>
<path d="M113.801 92.6657C113.585 92.6657 113.369 92.6009 113.175 92.4605L110.571 90.5915C110.085 90.2457 109.977 89.5759 110.323 89.0898C110.668 88.6036 111.334 88.4848 111.821 88.8413L114.424 90.7103C114.907 91.056 115.015 91.7258 114.673 92.212C114.468 92.5145 114.143 92.6657 113.801 92.6657Z" fill="#40033F"/>
<path d="M107.654 88.2687C107.438 88.2687 107.222 88.2039 107.027 88.0634L104.424 86.216C103.938 85.8703 103.829 85.2005 104.175 84.7035C104.521 84.2174 105.187 84.0985 105.673 84.4551L108.277 86.3133C108.763 86.659 108.868 87.3288 108.525 87.8258C108.32 88.1175 107.985 88.2687 107.654 88.2687Z" fill="#40033F"/>
<path d="M106.307 93.9407C106.091 93.9407 105.875 93.8759 105.684 93.7354C105.198 93.3897 105.09 92.7199 105.436 92.2229L107.297 89.6084C107.643 89.1223 108.309 89.0034 108.795 89.36C109.278 89.7057 109.386 90.3755 109.04 90.8617L107.179 93.4761C106.973 93.7786 106.642 93.9407 106.307 93.9407Z" fill="#40033F"/>
<path d="M110.69 87.7609C110.474 87.7609 110.258 87.6961 110.063 87.5557C109.581 87.2099 109.473 86.5401 109.818 86.054L111.669 83.4395C112.012 82.9533 112.681 82.8345 113.164 83.1802C113.65 83.5259 113.758 84.1958 113.412 84.6819L111.561 87.2964C111.356 87.5989 111.021 87.7609 110.69 87.7609Z" fill="#40033F"/>
<path d="M10.2598 59.5276C10.0438 59.5276 9.83129 59.4627 9.63683 59.3223L7.02957 57.4533C6.54701 57.1076 6.43897 56.4377 6.78468 55.9516C7.1268 55.4654 7.79662 55.3466 8.27918 55.7031L10.8864 57.5721C11.369 57.9178 11.477 58.5877 11.1313 59.0738C10.9297 59.3655 10.5947 59.5276 10.2598 59.5276Z" fill="#40033F"/>
<path d="M4.11252 55.1306C3.90005 55.1306 3.68398 55.0658 3.48951 54.9253L0.885852 53.0671C0.399691 52.7214 0.291655 52.0516 0.63737 51.5546C0.979483 51.0684 1.6493 50.9496 2.14267 51.3061L4.74993 53.1643C5.23249 53.5101 5.34052 54.1799 4.99481 54.6768C4.78234 54.9685 4.44743 55.1306 4.11252 55.1306Z" fill="#40033F"/>
<path d="M2.75847 60.7917C2.5424 60.7917 2.32633 60.7269 2.13186 60.5864C1.6493 60.2407 1.54127 59.5709 1.88698 59.0847L3.7488 56.4703C4.09091 55.9841 4.76073 55.8653 5.24329 56.2218C5.72945 56.5675 5.83749 57.2373 5.49177 57.7235L3.62996 60.3379C3.42469 60.6296 3.10058 60.7917 2.75847 60.7917Z" fill="#40033F"/>
<path d="M7.13754 54.6227C6.92507 54.6227 6.709 54.5579 6.51454 54.4175C6.02838 54.0718 5.92394 53.4019 6.26606 52.9158L8.11707 50.3013C8.46278 49.8152 9.129 49.6963 9.61516 50.0528C10.0977 50.3985 10.2058 51.0684 9.86364 51.5545L8.00903 54.169C7.80736 54.4607 7.47245 54.6227 7.13754 54.6227Z" fill="#40033F"/>
</svg>
