<svg width="103" height="105" viewBox="0 0 103 105" fill="none" xmlns="http://www.w3.org/2000/svg">
<mask id="mask0_2084_546" style="mask-type:luminance" maskUnits="userSpaceOnUse" x="0" y="0" width="103" height="105">
<path d="M0 0H102.422V105H0V0Z" fill="white"/>
</mask>
<g mask="url(#mask0_2084_546)">
<path d="M14.1866 34.1561H32.9152C32.8572 34.5581 32.807 34.9601 32.776 35.3698C32.718 36.1545 32.9886 36.9315 33.5221 37.5036C34.0517 38.0757 34.8054 38.4043 35.5902 38.4043H66.8316C67.6124 38.4043 68.3662 38.0757 68.8996 37.5036C69.4292 36.9315 69.6998 36.1545 69.6418 35.3698C69.6109 34.9601 69.5606 34.5581 69.5026 34.1561H88.2312C88.9734 34.1561 89.6924 33.8429 90.1949 33.2979C90.6975 32.7567 90.9565 32.0184 90.8985 31.2724C90.4191 24.8478 86.225 19.4708 80.5349 17.2017C82.7344 15.4275 84.1454 12.7138 84.1454 9.67552C84.1454 4.34879 79.8198 0.0155029 74.5047 0.0155029C69.1857 0.0155029 64.8601 4.34879 64.8601 9.67552C64.8601 12.7138 66.271 15.4275 68.4667 17.1979C66.0082 18.1759 63.7971 19.7453 62.0383 21.794C60.6892 20.8083 59.2009 20.0043 57.6161 19.4128C60.2485 17.4491 61.9532 14.3103 61.9532 10.7772C61.9532 4.84358 57.1329 0.0155029 51.2108 0.0155029C45.285 0.0155029 40.4646 4.84358 40.4646 10.7772C40.4646 14.3103 42.1693 17.4491 44.8018 19.4128C43.2169 20.0043 41.7325 20.8083 40.3796 21.794C38.6208 19.7453 36.4097 18.1759 33.9512 17.1979C36.1468 15.4275 37.5577 12.7138 37.5577 9.67552C37.5577 4.34879 33.2322 0.0155029 27.917 0.0155029C22.598 0.0155029 18.2725 4.34879 18.2725 9.67552C18.2725 12.7138 19.6834 15.4275 21.8829 17.2017C16.1928 19.4708 11.9987 24.8478 11.5194 31.2724C11.4614 32.0145 11.7204 32.7529 12.2229 33.2979C12.7254 33.8429 13.4444 34.1561 14.1866 34.1561ZM68.1497 9.67552C68.1497 6.1656 70.9986 3.30895 74.5047 3.30895C78.0069 3.30895 80.8596 6.1656 80.8596 9.67552C80.8596 13.1816 78.0069 16.0382 74.5047 16.0382C74.5008 16.0382 74.5008 16.0382 74.5008 16.0382C70.9986 16.0382 68.1497 13.1816 68.1497 9.67552ZM74.5008 19.3317C74.5008 19.3317 74.5008 19.3317 74.5047 19.3317C81.1264 19.3317 86.7353 24.3453 87.5548 30.8626H68.7218C67.8366 28.2495 66.387 25.8992 64.52 23.9587C67.0132 21.0402 70.6507 19.3317 74.5008 19.3317ZM43.7503 10.7772C43.7503 6.66039 47.0979 3.30895 51.2108 3.30895C55.3199 3.30895 58.6675 6.66039 58.6675 10.7772C58.6675 14.8979 55.3199 18.2454 51.2108 18.2454C47.0979 18.2454 43.7503 14.8979 43.7503 10.7772ZM66.3174 35.1109H36.1043C36.9354 27.4609 43.472 21.5389 51.2108 21.5389C58.9458 21.5389 65.4863 27.4609 66.3174 35.1109ZM21.5621 9.67552C21.5621 6.1656 24.411 3.30895 27.917 3.30895C31.4192 3.30895 34.272 6.1656 34.272 9.67552C34.272 13.1816 31.4231 16.0382 27.917 16.0382H27.9132C24.411 16.0382 21.5621 13.1816 21.5621 9.67552ZM27.9132 19.3317C27.9132 19.3317 27.9132 19.3317 27.917 19.3317C31.7671 19.3317 35.4046 21.0402 37.9018 23.9587C36.0347 25.8992 34.5812 28.2495 33.696 30.8626H14.8631C15.6826 24.3453 21.2915 19.3317 27.9132 19.3317ZM102.244 78.3741L95.166 42.7917C94.9882 41.8872 94.4664 41.1063 93.6971 40.5922C92.9279 40.0781 92.0079 39.8925 91.1033 40.0742L81.9961 41.891C81.0916 42.0688 80.3107 42.5946 79.7966 43.3638C79.2825 44.133 79.1008 45.0569 79.2786 45.9615L79.3598 46.3635C73.921 48.1648 67.3109 48.6673 59.0888 41.8756C55.3122 38.7561 50.3914 38.6517 46.8428 41.6204L43.1705 44.6936H23.1508C22.9111 43.3251 21.8636 42.1771 20.4256 41.891L11.3184 40.0742C10.4138 39.8925 9.49381 40.0742 8.72457 40.5922C7.95532 41.1063 7.42961 41.8872 7.25179 42.7917L0.173967 78.3741C-0.00771391 79.2786 0.177832 80.1987 0.691951 80.9718C1.20607 81.741 1.98691 82.2629 2.88758 82.4445L11.9948 84.2613C12.2229 84.3077 12.451 84.3271 12.6752 84.3271C13.3516 84.3271 14.0126 84.1299 14.5886 83.7434C15.3579 83.2292 15.8797 82.4484 16.0614 81.5439L16.0884 81.4047L37.635 102.982C38.9686 104.32 40.7236 104.988 42.4786 104.988C44.2297 104.988 45.9846 104.32 47.3182 102.982C48.2189 102.082 48.8374 100.968 49.1312 99.7545L52.0767 102.708C54.7478 105.383 59.0927 105.383 61.7638 102.708C62.6838 101.784 63.2868 100.663 63.5729 99.4762C64.8485 100.694 66.5184 101.359 68.2927 101.359C70.1289 101.359 71.8452 100.647 73.1363 99.3563C74.609 97.8836 75.2662 95.9005 75.1154 93.9678C75.2932 93.9832 75.4749 93.9909 75.6527 93.9909C77.485 93.9909 79.2052 93.2797 80.4963 91.9847C82.2938 90.1834 82.9122 87.493 82.1817 85.1002L86.2559 81.022L86.3565 81.5439C86.5381 82.4484 87.06 83.2292 87.8292 83.7434C88.4052 84.1299 89.0662 84.3271 89.7427 84.3271C89.9707 84.3271 90.1949 84.3077 90.423 84.2613L99.5303 82.4445C100.435 82.2629 101.216 81.741 101.726 80.9718C102.24 80.1987 102.426 79.2786 102.244 78.3741ZM12.7641 81.0027C12.737 81.022 12.6906 81.0413 12.6365 81.0297L3.53313 79.2129C3.47515 79.2052 3.44423 79.1704 3.4249 79.1395C3.40557 79.1124 3.38624 79.0699 3.39784 79.0158L10.4757 43.4334C10.4873 43.3793 10.5221 43.3483 10.5491 43.329C10.5723 43.3136 10.6032 43.2981 10.6419 43.2981C10.6535 43.2981 10.6651 43.302 10.6728 43.302L19.78 45.1188C19.869 45.1381 19.9308 45.2309 19.9153 45.3159L12.8375 80.8983C12.8259 80.9524 12.7911 80.9872 12.7641 81.0027ZM78.1692 89.6577C77.5005 90.3264 76.6075 90.6975 75.6527 90.6975C74.6979 90.6975 73.805 90.3264 73.1363 89.6577L57.6431 74.1413C56.9976 73.4958 55.9577 73.4958 55.3161 74.1413C54.6744 74.783 54.6744 75.8267 55.3161 76.4684L70.8092 91.9847C72.1969 93.3763 72.1969 95.6377 70.8092 97.0293C70.1405 97.698 69.2475 98.0652 68.2927 98.0652C67.3379 98.0652 66.445 97.698 65.7763 97.0293L49.4056 80.6316C48.764 79.986 47.7203 79.9899 47.0786 80.6316C46.4369 81.2733 46.4369 82.317 47.0786 82.9587L59.4367 95.3362L59.4445 95.3439C60.8245 96.7316 60.8245 98.9891 59.4367 100.377C58.049 101.768 55.7915 101.768 54.4038 100.377L41.1681 87.1219C40.5265 86.4802 39.4866 86.4802 38.845 87.1219C38.1994 87.7635 38.1994 88.8072 38.845 89.4528L44.995 95.6106C44.995 95.6145 44.995 95.6145 44.995 95.6145C45.6638 96.2832 46.031 97.1762 46.031 98.1348C46.031 99.0896 45.6638 99.9864 44.995 100.655C43.6073 102.043 41.3498 102.043 39.9621 100.655L16.8616 77.5198L22.7372 47.987H39.2315L34.6315 51.8332C32.5866 53.5379 31.7091 55.8689 32.2233 58.223L35.9265 75.2276C36.0231 75.6605 36.2898 76.0393 36.6648 76.2712C37.0436 76.507 37.4959 76.5805 37.9288 76.4723C42.3897 75.3744 45.3739 73.2175 47.0477 69.8854C48.4972 67.0094 48.7833 63.743 49.0887 60.2833C49.1273 59.8427 49.166 59.402 49.2085 58.9613C49.2085 58.9381 49.2124 58.9188 49.2162 58.9072C49.8038 58.7023 52.5135 59.2937 56.5878 63.0008L78.8882 85.6607C79.4912 87.002 79.209 88.614 78.1692 89.6577ZM80.2605 82.3634L58.8994 60.6583C58.8762 60.6351 58.8569 60.6158 58.8337 60.5964C54.5507 56.6884 50.5151 54.9063 48.0334 55.8341C46.8582 56.2747 46.0929 57.2759 45.9382 58.5863C45.9382 58.6018 45.9382 58.6134 45.9344 58.625C45.8919 59.085 45.8532 59.5411 45.8107 59.9934C45.2772 66.1049 44.8752 70.6469 38.7638 72.7961L35.4355 57.5233C35.1031 55.9964 36.1081 54.887 36.7382 54.3613L48.9495 44.1485C51.2456 42.2273 54.4811 42.3356 56.9976 44.4152C66.2672 52.0768 74.0331 51.5124 80.0053 49.6144L85.4828 77.1371L80.2605 82.3634ZM98.9929 79.1395C98.9736 79.1704 98.9427 79.2052 98.8886 79.2129L89.7813 81.0297C89.7272 81.0413 89.6808 81.022 89.6538 81.0027C89.6267 80.9872 89.5919 80.9524 89.5803 80.8983L82.5064 45.3159C82.4948 45.2618 82.5141 45.2193 82.5334 45.1922C82.5489 45.1652 82.5837 45.1304 82.6378 45.1188L91.745 43.302C91.7566 43.302 91.7644 43.2981 91.776 43.2981C91.8146 43.2981 91.8494 43.3136 91.8687 43.329C91.8958 43.3483 91.9306 43.3793 91.9422 43.4334L99.02 79.0158C99.0316 79.0699 99.0123 79.1124 98.9929 79.1395Z" fill="#40033F"/>
</g>
</svg>
