<svg width="103" height="95" viewBox="0 0 103 95" fill="none" xmlns="http://www.w3.org/2000/svg">
<path d="M29.661 87.4516H73.3389V17.8732H29.661V87.4516ZM74.1834 89.137H28.8166C28.3516 89.137 27.9722 88.761 27.9722 88.2926V17.0288C27.9722 16.5639 28.3516 16.1844 28.8166 16.1844H74.1834C74.6483 16.1844 75.0278 16.5639 75.0278 17.0288V88.2926C75.0278 88.761 74.6483 89.137 74.1834 89.137Z" fill="#40033F"/>
<path d="M95.7865 89.1369H74.1834C73.7185 89.1369 73.339 88.7609 73.339 88.2925V30.5259C73.339 30.0576 73.7185 29.6815 74.1834 29.6815C74.4056 29.6815 74.6073 29.767 74.7544 29.9072L96.3027 46.7376L95.7865 47.3975L96.3061 46.7342C96.5181 46.8983 96.6275 47.1445 96.6275 47.3975V88.2925C96.6275 88.7609 96.2514 89.1369 95.7865 89.1369ZM75.0279 87.4515H94.942V47.8043L75.0279 32.2524V87.4515Z" fill="#40033F"/>
<path d="M33.237 22.3038H39.1275C39.5925 22.3038 39.9719 22.6799 39.9719 23.1448V29.0388C39.9719 29.5037 39.5925 29.8832 39.1275 29.8832H33.237C32.7686 29.8832 32.3926 29.5037 32.3926 29.0388V23.1448C32.3926 22.6799 32.7686 22.3038 33.237 22.3038ZM38.2831 23.9893H34.078V28.1943H38.2831V23.9893Z" fill="#40033F"/>
<path d="M43.4489 22.3038H49.3394C49.8044 22.3038 50.1804 22.6799 50.1804 23.1448V29.0388C50.1804 29.5037 49.8044 29.8832 49.3394 29.8832H43.4489C42.9806 29.8832 42.6045 29.5037 42.6045 29.0388V23.1448C42.6045 22.6799 42.9806 22.3038 43.4489 22.3038ZM48.495 23.9893H44.2899V28.1943H48.495V23.9893Z" fill="#40033F"/>
<path d="M53.6572 22.3038H59.5511C60.016 22.3038 60.3955 22.6799 60.3955 23.1448V29.0388C60.3955 29.5037 60.016 29.8832 59.5511 29.8832H53.6572C53.1922 29.8832 52.8162 29.5037 52.8162 29.0388V23.1448C52.8162 22.6799 53.1922 22.3038 53.6572 22.3038ZM58.7067 23.9893H54.505V28.1943H58.7067V23.9893Z" fill="#40033F"/>
<path d="M63.8725 22.3038H69.763C70.2314 22.3038 70.6074 22.6799 70.6074 23.1448V29.0388C70.6074 29.5037 70.2314 29.8832 69.763 29.8832H63.8725C63.4076 29.8832 63.0315 29.5037 63.0315 29.0388V23.1448C63.0315 22.6799 63.4076 22.3038 63.8725 22.3038ZM68.922 23.9893H64.7169V28.1943H68.922V23.9893Z" fill="#40033F"/>
<path d="M33.237 33.1036H39.1275C39.5925 33.1036 39.9719 33.4797 39.9719 33.9446V39.8352C39.9719 40.3001 39.5925 40.6762 39.1275 40.6762H33.237C32.7686 40.6762 32.3926 40.3001 32.3926 39.8352V33.9446C32.3926 33.4797 32.7686 33.1036 33.237 33.1036ZM38.2831 34.7891H34.078V38.9907H38.2831V34.7891Z" fill="#40033F"/>
<path d="M43.4489 33.1036H49.3394C49.8044 33.1036 50.1804 33.4797 50.1804 33.9446V39.8352C50.1804 40.3001 49.8044 40.6762 49.3394 40.6762H43.4489C42.9806 40.6762 42.6045 40.3001 42.6045 39.8352V33.9446C42.6045 33.4797 42.9806 33.1036 43.4489 33.1036ZM48.495 34.7891H44.2899V38.9907H48.495V34.7891Z" fill="#40033F"/>
<path d="M53.6572 33.1036H59.5511C60.016 33.1036 60.3955 33.4797 60.3955 33.9446V39.8352C60.3955 40.3001 60.016 40.6762 59.5511 40.6762H53.6572C53.1922 40.6762 52.8162 40.3001 52.8162 39.8352V33.9446C52.8162 33.4797 53.1922 33.1036 53.6572 33.1036ZM58.7067 34.7891H54.505V38.9907H58.7067V34.7891Z" fill="#40033F"/>
<path d="M63.8725 33.1036H69.763C70.2314 33.1036 70.6074 33.4797 70.6074 33.9446V39.8352C70.6074 40.3001 70.2314 40.6762 69.763 40.6762H63.8725C63.4076 40.6762 63.0315 40.3001 63.0315 39.8352V33.9446C63.0315 33.4797 63.4076 33.1036 63.8725 33.1036ZM68.922 34.7891H64.7169V38.9907H68.922V34.7891Z" fill="#40033F"/>
<path d="M33.237 43.8967H39.1275C39.5925 43.8967 39.9719 44.2796 39.9719 44.7446V50.6317C39.9719 51.1 39.5925 51.4761 39.1275 51.4761H33.237C32.7686 51.4761 32.3926 51.1 32.3926 50.6317V44.7446C32.3926 44.2796 32.7686 43.8967 33.237 43.8967ZM38.2831 45.589H34.078V49.7906H38.2831V45.589Z" fill="#40033F"/>
<path d="M43.4489 43.8967H49.3394C49.8044 43.8967 50.1804 44.2796 50.1804 44.7446V50.6317C50.1804 51.1 49.8044 51.4761 49.3394 51.4761H43.4489C42.9806 51.4761 42.6045 51.1 42.6045 50.6317V44.7446C42.6045 44.2796 42.9806 43.8967 43.4489 43.8967ZM48.495 45.589H44.2899V49.7906H48.495V45.589Z" fill="#40033F"/>
<path d="M53.6572 43.8967H59.5511C60.016 43.8967 60.3955 44.2796 60.3955 44.7446V50.6317C60.3955 51.1 60.016 51.4761 59.5511 51.4761H53.6572C53.1922 51.4761 52.8162 51.1 52.8162 50.6317V44.7446C52.8162 44.2796 53.1922 43.8967 53.6572 43.8967ZM58.7067 45.589H54.505V49.7906H58.7067V45.589Z" fill="#40033F"/>
<path d="M63.8725 43.8967H69.763C70.2314 43.8967 70.6074 44.2796 70.6074 44.7446V50.6317C70.6074 51.1 70.2314 51.4761 69.763 51.4761H63.8725C63.4076 51.4761 63.0315 51.1 63.0315 50.6317V44.7446C63.0315 44.2796 63.4076 43.8967 63.8725 43.8967ZM68.922 45.589H64.7169V49.7906H68.922V45.589Z" fill="#40033F"/>
<path d="M33.237 54.6965H39.1275C39.5925 54.6965 39.9719 55.076 39.9719 55.541V61.4315C39.9719 61.8964 39.5925 62.2759 39.1275 62.2759H33.237C32.7686 62.2759 32.3926 61.8964 32.3926 61.4315V55.541C32.3926 55.076 32.7686 54.6965 33.237 54.6965ZM38.2831 56.3854H34.078V60.5905H38.2831V56.3854Z" fill="#40033F"/>
<path d="M63.8725 54.6965H69.763C70.2314 54.6965 70.6074 55.076 70.6074 55.541V61.4315C70.6074 61.8964 70.2314 62.2759 69.763 62.2759H63.8725C63.4076 62.2759 63.0315 61.8964 63.0315 61.4315V55.541C63.0315 55.076 63.4076 54.6965 63.8725 54.6965ZM68.922 56.3854H64.7169V60.5905H68.922V56.3854Z" fill="#40033F"/>
<path d="M33.237 65.4963H39.1275C39.5925 65.4963 39.9719 65.8724 39.9719 66.3408V72.2278C39.9719 72.6928 39.5925 73.0723 39.1275 73.0723H33.237C32.7686 73.0723 32.3926 72.6928 32.3926 72.2278V66.3408C32.3926 65.8724 32.7686 65.4963 33.237 65.4963ZM38.2831 67.1818H34.078V71.3834H38.2831V67.1818Z" fill="#40033F"/>
<path d="M63.8725 65.4963H69.763C70.2314 65.4963 70.6074 65.8724 70.6074 66.3408V72.2278C70.6074 72.6928 70.2314 73.0723 69.763 73.0723H63.8725C63.4076 73.0723 63.0315 72.6928 63.0315 72.2278V66.3408C63.0315 65.8724 63.4076 65.4963 63.8725 65.4963ZM68.922 67.1818H64.7169V71.3834H68.922V67.1818Z" fill="#40033F"/>
<path d="M33.237 76.2927H39.1275C39.5925 76.2927 39.9719 76.6687 39.9719 77.1371V83.0276C39.9719 83.4925 39.5925 83.872 39.1275 83.872H33.237C32.7686 83.872 32.3926 83.4925 32.3926 83.0276V77.1371C32.3926 76.6687 32.7686 76.2927 33.237 76.2927ZM38.2831 77.9781H34.078V82.1832H38.2831V77.9781Z" fill="#40033F"/>
<path d="M63.8725 76.2927H69.763C70.2314 76.2927 70.6074 76.6687 70.6074 77.1371V83.0276C70.6074 83.4925 70.2314 83.872 69.763 83.872H63.8725C63.4076 83.872 63.0315 83.4925 63.0315 83.0276V77.1371C63.0315 76.6687 63.4076 76.2927 63.8725 76.2927ZM68.922 77.9781H64.7169V82.1832H68.922V77.9781Z" fill="#40033F"/>
<path d="M92.3095 54.9563C92.3095 54.4914 91.9334 54.1119 91.465 54.1119C91.0001 54.1119 90.6206 54.4914 90.6206 54.9563V88.2925C90.6206 88.7609 91.0001 89.1369 91.465 89.1369C91.9334 89.1369 92.3095 88.7609 92.3095 88.2925V54.9563Z" fill="#40033F"/>
<path d="M87.9883 51.582C87.9883 51.117 87.6088 50.741 87.1439 50.741C86.6755 50.741 86.2994 51.117 86.2994 51.582V88.2925C86.2994 88.7608 86.6755 89.1369 87.1439 89.1369C87.6088 89.1369 87.9883 88.7608 87.9883 88.2925V51.582Z" fill="#40033F"/>
<path d="M83.667 48.2043C83.667 47.7428 83.2875 47.3633 82.8226 47.3633C82.3576 47.3633 81.9781 47.7428 81.9781 48.2043V88.2925C81.9781 88.7609 82.3576 89.1369 82.8226 89.1369C83.2875 89.1369 83.667 88.7609 83.667 88.2925V48.2043Z" fill="#40033F"/>
<path d="M79.3456 44.8334C79.3456 44.3651 78.9695 43.989 78.5046 43.989C78.0362 43.989 77.6602 44.3651 77.6602 44.8334V88.2926C77.6602 88.7609 78.0362 89.137 78.5046 89.137C78.9695 89.137 79.3456 88.7609 79.3456 88.2926V44.8334Z" fill="#40033F"/>
<path d="M42.8608 53.9854H60.1426C60.6075 53.9854 60.9836 54.3614 60.9836 54.8298V88.2925C60.9836 88.7608 60.6075 89.1369 60.1426 89.1369H42.8608C42.3924 89.1369 42.0164 88.7608 42.0164 88.2925V54.8298C42.0164 54.3614 42.3924 53.9854 42.8608 53.9854ZM59.2981 55.6708H43.7018V87.4515H59.2981V55.6708Z" fill="#40033F"/>
<path d="M52.341 71.5645C52.341 71.0962 51.9649 70.7201 51.4999 70.7201C51.0316 70.7201 50.6555 71.0962 50.6555 71.5645V88.2924C50.6555 88.7608 51.0316 89.1369 51.4999 89.1369C51.9649 89.1369 52.341 88.7608 52.341 88.2924V71.5645Z" fill="#40033F"/>
<path d="M60.1426 59.9922C60.6075 59.9922 60.9836 59.6161 60.9836 59.1478C60.9836 58.6828 60.6075 58.3068 60.1426 58.3068H42.8608C42.3924 58.3068 42.0164 58.6828 42.0164 59.1478C42.0164 59.6161 42.3924 59.9922 42.8608 59.9922H60.1426Z" fill="#40033F"/>
<path d="M60.1426 64.3135C60.6075 64.3135 60.9836 63.934 60.9836 63.4691C60.9836 63.0007 60.6075 62.6246 60.1426 62.6246H42.8608C42.3924 62.6246 42.0164 63.0007 42.0164 63.4691C42.0164 63.934 42.3924 64.3135 42.8608 64.3135H60.1426Z" fill="#40033F"/>
<path d="M8.05788 87.4515H27.9721V32.2524L8.05788 47.8043V87.4515ZM28.8165 89.1369H7.21345C6.7485 89.1369 6.37244 88.7609 6.37244 88.2925V47.3975C6.37244 47.1445 6.48184 46.8983 6.6938 46.7342L7.21345 47.3975L6.6938 46.7376L28.2422 29.9072C28.3926 29.767 28.5943 29.6815 28.8165 29.6815C29.2815 29.6815 29.6609 30.0576 29.6609 30.5259V88.2925C29.6609 88.7609 29.2815 89.1369 28.8165 89.1369Z" fill="#40033F"/>
<path d="M12.3793 54.9563C12.3793 54.4914 11.9998 54.1119 11.5349 54.1119C11.0699 54.1119 10.6904 54.4914 10.6904 54.9563V88.2925C10.6904 88.7609 11.0699 89.1369 11.5349 89.1369C11.9998 89.1369 12.3793 88.7609 12.3793 88.2925V54.9563Z" fill="#40033F"/>
<path d="M16.6972 51.582C16.6972 51.117 16.3211 50.741 15.8527 50.741C15.3878 50.741 15.0117 51.117 15.0117 51.582V88.2925C15.0117 88.7608 15.3878 89.1369 15.8527 89.1369C16.3211 89.1369 16.6972 88.7608 16.6972 88.2925V51.582Z" fill="#40033F"/>
<path d="M21.0219 48.2043C21.0219 47.7428 20.639 47.3633 20.174 47.3633C19.7091 47.3633 19.3296 47.7428 19.3296 48.2043V88.2925C19.3296 88.7609 19.7091 89.1369 20.174 89.1369C20.639 89.1369 21.0219 88.7609 21.0219 88.2925V48.2043Z" fill="#40033F"/>
<path d="M25.3397 44.8334C25.3397 44.3651 24.9637 43.989 24.4987 43.989C24.0304 43.989 23.6543 44.3651 23.6543 44.8334V88.2926C23.6543 88.7609 24.0304 89.137 24.4987 89.137C24.9637 89.137 25.3397 88.7609 25.3397 88.2926V44.8334Z" fill="#40033F"/>
<path d="M39.7292 11.3297H63.2673C63.7356 11.3297 64.1151 11.7091 64.1151 12.1741V17.0287C64.1151 17.4937 63.7356 17.8731 63.2673 17.8731H39.7292C39.2608 17.8731 38.8848 17.4937 38.8848 17.0287V12.1741C38.8848 11.7091 39.2608 11.3297 39.7292 11.3297ZM62.4263 13.0185H40.5702V16.1843H62.4263V13.0185Z" fill="#40033F"/>
<mask id="mask0_2084_498" style="mask-type:luminance" maskUnits="userSpaceOnUse" x="33" y="0" width="37" height="14">
<path d="M33.8796 0H69.7628V13.2989H33.8796V0Z" fill="white"/>
</mask>
<g mask="url(#mask0_2084_498)">
<path d="M35.6233 11.3297H67.3766V1.68538H35.6233V11.3297ZM68.2211 13.0185H34.7789C34.3139 13.0185 33.9344 12.639 33.9344 12.1741V0.840952C33.9344 0.372583 34.3139 -0.003479 34.7789 -0.003479H68.2211C68.686 -0.003479 69.0655 0.372583 69.0655 0.840952V12.1741C69.0655 12.639 68.686 13.0185 68.2211 13.0185Z" fill="#40033F"/>
</g>
<path d="M38.7754 9.31606V3.69564H39.9173V5.91099H42.1292V3.69564H43.271V9.31606H42.1292V6.8614H39.9173V9.31606H38.7754ZM44.2112 6.54004C44.2112 5.96911 44.2967 5.48706 44.471 5.09733C44.5975 4.81015 44.7719 4.55375 44.9941 4.32469C45.2129 4.09905 45.4556 3.92812 45.7189 3.81872C46.071 3.66829 46.4744 3.59308 46.9325 3.59308C47.7633 3.59308 48.4265 3.8529 48.9256 4.36572C49.4214 4.88195 49.6709 5.59646 49.6709 6.51269C49.6709 7.42549 49.4214 8.13659 48.9291 8.64941C48.4368 9.16222 47.7735 9.42204 46.9496 9.42204C46.112 9.42204 45.4454 9.16564 44.9531 8.65282C44.4573 8.14343 44.2112 7.43917 44.2112 6.54004ZM45.3804 6.50585C45.3804 7.13832 45.5308 7.62378 45.8248 7.95198C46.1189 8.2836 46.4949 8.44428 46.9462 8.44428C47.4009 8.44428 47.7701 8.2836 48.0641 7.95882C48.3547 7.63062 48.4983 7.13832 48.4983 6.48876C48.4983 5.84261 48.3581 5.36057 48.0744 5.04605C47.7906 4.7281 47.418 4.56742 46.9462 4.56742C46.4778 4.56742 46.0983 4.73152 45.8146 5.05288C45.524 5.37083 45.3804 5.85629 45.3804 6.50585ZM51.8213 9.31606V4.64947H50.1564V3.69564H54.6144V4.64947H52.9598V9.31606H51.8213ZM55.3529 9.31606V3.69564H59.5169V4.64947H56.4913V5.89731H59.305V6.84431H56.4913V8.36565H59.6263V9.31606H55.3529ZM60.6246 9.31606V3.7435H61.7596V8.36565H64.5801V9.31606H60.6246Z" fill="#40033F"/>
<mask id="mask1_2084_498" style="mask-type:luminance" maskUnits="userSpaceOnUse" x="0" y="87" width="103" height="8">
<path d="M0 87.1472H103V94.5215H0V87.1472Z" fill="white"/>
</mask>
<g mask="url(#mask1_2084_498)">
<path d="M0.84443 87.4515H102.156C102.624 87.4515 103 87.8275 103 88.2925V93.7044C103 94.1693 102.624 94.5454 102.156 94.5454H0.84443C0.376062 94.5454 0 94.1693 0 93.7044V88.2925C0 87.8275 0.376062 87.4515 0.84443 87.4515ZM101.315 89.1369H1.68544V92.8599H101.315V89.1369Z" fill="#40033F"/>
</g>
<path d="M99.424 51.1307L73.674 31.5823L74.1834 30.9088L73.6706 31.5857C73.4552 31.4182 73.339 31.1652 73.339 30.9088V23.3807C73.339 22.9158 73.7185 22.5363 74.1834 22.5363C74.4091 22.5363 74.6142 22.6252 74.7646 22.7688L99.6941 42.9736C99.8787 43.124 99.9847 43.3394 100.005 43.5616L100.833 50.4094H100.836C100.887 50.8743 100.559 51.2914 100.098 51.3495C99.8411 51.3803 99.5984 51.2914 99.424 51.1307ZM75.0279 30.4986L98.9215 48.6384L98.3676 44.0642L75.0279 25.1482V30.4986Z" fill="#40033F"/>
<path d="M3.85971 48.6384L27.7533 30.4986V25.1482L4.41355 44.0642L3.85971 48.6384ZM28.5978 30.9088L29.1037 31.5823L3.35373 51.1307C3.17938 51.2914 2.93665 51.3803 2.68024 51.3495C2.21871 51.2914 1.88709 50.8743 1.94521 50.4094H1.94863L2.77597 43.5616C2.79306 43.3394 2.89904 43.124 3.08707 42.9736L28.0132 22.7688C28.1636 22.6252 28.3721 22.5363 28.5978 22.5363C29.0627 22.5363 29.4388 22.9158 29.4388 23.3807V30.9088C29.4388 31.1652 29.3225 31.4182 29.1037 31.5857L28.5978 30.9088Z" fill="#40033F"/>
</svg>
