<svg width="1440" height="387" viewBox="0 0 1440 387" fill="none" xmlns="http://www.w3.org/2000/svg">
<path opacity="0.3" fill-rule="evenodd" clip-rule="evenodd" d="M1068.4 310.184C1096.8 312.701 1125.11 318.017 1153.24 326.824C1265.15 289.233 1382.36 254.064 1498 266.66V179.66C1243.04 116.228 975.098 322.421 769.051 303.943C471.08 277.222 504.021 52.0151 211.102 5.96177C139.845 -5.24366 67.2543 -0.488986 0 18.8402V134.561C81.3326 99.8774 174.293 88.2409 265.105 102.518C515.816 141.936 527.809 312.596 712.894 377.714C722.538 381.106 732.649 384.213 743.291 387C753.133 383.923 763.023 380.819 772.951 377.714C868.779 347.757 968.507 317.671 1068.4 310.184ZM1048.23 308.857C1048.96 308.888 1049.7 308.919 1050.44 308.955C1049.7 308.919 1048.96 308.888 1048.23 308.857ZM1041.71 308.618C1042.44 308.639 1043.18 308.665 1043.92 308.69C1043.18 308.665 1042.44 308.642 1041.71 308.618ZM1027.72 308.421C1028.12 308.421 1028.52 308.416 1028.93 308.418C1028.52 308.416 1028.12 308.421 1027.72 308.421ZM1020.41 308.48C1021.12 308.47 1021.82 308.457 1022.53 308.449C1021.82 308.457 1021.12 308.47 1020.41 308.48ZM1013.82 308.621C1014.56 308.601 1015.3 308.583 1016.04 308.565C1015.3 308.58 1014.56 308.601 1013.82 308.621ZM1000.41 309.17C1000.6 309.16 1000.8 309.147 1001 309.137C1000.8 309.145 1000.6 309.16 1000.41 309.17ZM985.899 310.148C986.657 310.086 987.415 310.027 988.173 309.968C987.412 310.027 986.657 310.086 985.899 310.148ZM979.445 310.699C980.131 310.635 980.817 310.579 981.503 310.517C980.817 310.579 980.131 310.638 979.445 310.699ZM951.543 313.915C952.25 313.817 952.957 313.722 953.668 313.627C952.96 313.722 952.253 313.814 951.543 313.915ZM936.992 316.083C937.597 315.985 938.202 315.888 938.807 315.79C938.205 315.888 937.597 315.985 936.992 316.083ZM923.675 318.338C924.409 318.207 925.14 318.079 925.874 317.951C925.143 318.079 924.409 318.207 923.675 318.338ZM909.309 321.053C909.866 320.943 910.426 320.83 910.983 320.719C910.426 320.83 909.869 320.943 909.309 321.053ZM902.334 322.469C903.092 322.313 903.85 322.154 904.608 322C903.853 322.154 903.095 322.313 902.334 322.469ZM889.496 325.233C890.08 325.102 890.665 324.976 891.252 324.845C890.668 324.974 890.08 325.102 889.496 325.233ZM874.75 328.653C875.43 328.489 876.11 328.327 876.79 328.163C876.11 328.327 875.43 328.492 874.75 328.653ZM861.744 331.866C862.409 331.696 863.077 331.53 863.742 331.363C863.077 331.532 862.409 331.699 861.744 331.866ZM840.484 337.49C841.254 337.28 842.024 337.069 842.791 336.859L840.484 337.49ZM834.184 339.238C834.849 339.05 835.514 338.868 836.179 338.683C835.514 338.866 834.849 339.05 834.184 339.238ZM819.713 343.377C820.336 343.194 820.959 343.012 821.583 342.83L819.713 343.377Z" fill="#FF0066"/>
</svg>
