<svg width="166" height="94" viewBox="0 0 166 94" fill="none" xmlns="http://www.w3.org/2000/svg">
<g clip-path="url(#clip0_2056_159)">
<path d="M3.16688 60.8686H1.97827V71.4102H3.16688V60.8686Z" fill="#00609B"/>
<path d="M4.0542 63.6221H5.19396V65.0204C5.64987 64.4798 6.14648 64.0834 6.70008 63.8167C7.2496 63.5536 7.84391 63.4239 8.49113 63.4239C9.15056 63.4239 9.73266 63.5716 10.2415 63.8671C10.7544 64.1663 11.1289 64.5627 11.3772 65.0673C11.6133 65.5646 11.7313 66.3467 11.7313 67.4098V71.4174H10.5997V67.6982C10.5997 66.7972 10.559 66.2025 10.4776 65.8998C10.3432 65.3844 10.099 64.9916 9.72859 64.7357C9.35002 64.4762 8.86969 64.3429 8.26725 64.3429C7.58746 64.3429 6.9728 64.5447 6.43549 64.9447C5.8941 65.3484 5.53589 65.8457 5.36086 66.4368C5.25502 66.826 5.2021 67.5324 5.2021 68.5559V71.4174H4.06234V63.6221H4.0542Z" fill="#00609B"/>
<path d="M13.494 60.7245H14.6337V63.6221H16.4248V64.4798H14.6337V71.4102H13.494V64.4798H11.9471V63.6221H13.494V60.7245Z" fill="#00609B"/>
<path d="M23.8699 68.819L24.8305 69.2695C24.513 69.8137 24.1508 70.2534 23.7437 70.5885C23.3285 70.9237 22.8726 71.176 22.3556 71.3562C21.8509 71.5292 21.2688 71.6157 20.6175 71.6157C19.1846 71.6157 18.0571 71.1976 17.2511 70.3615C16.4411 69.5326 16.0381 68.5883 16.0381 67.5432C16.0381 66.5557 16.38 65.6763 17.0639 64.8979C17.935 63.914 19.0992 63.4239 20.5564 63.4239C22.0585 63.4239 23.2552 63.9284 24.1508 64.9339C24.7858 65.6439 25.1114 66.5269 25.1236 67.5936H17.1941C17.2186 68.5018 17.5361 69.2442 18.1751 69.8245C18.8061 70.4083 19.5836 70.6966 20.5117 70.6966C20.9676 70.6966 21.399 70.6246 21.8224 70.4912C22.2498 70.3507 22.6121 70.1669 22.9052 69.9398C23.2023 69.7056 23.5239 69.338 23.8699 68.819ZM23.878 66.7251C23.7233 66.1917 23.5035 65.7592 23.2145 65.4421C22.9296 65.1213 22.5429 64.8618 22.0625 64.6708C21.5904 64.4726 21.0937 64.3717 20.5646 64.3717C19.6975 64.3717 18.9608 64.6204 18.338 65.1105C17.8861 65.4673 17.5361 66.0043 17.3081 66.7251H23.878Z" fill="#00609B"/>
<path d="M25.1561 63.6221H26.3122V64.7573C26.6582 64.3104 27.0205 63.9717 27.4072 63.7554C27.7939 63.532 28.1846 63.4202 28.608 63.4202C28.9214 63.4202 29.2552 63.5067 29.6134 63.6833L29.0191 64.5339C28.783 64.4402 28.5836 64.3933 28.4207 64.3933C28.0422 64.3933 27.6799 64.5339 27.3217 64.8114C26.9757 65.0817 26.707 65.5105 26.5198 66.0908C26.3814 66.5341 26.3122 67.4278 26.3122 68.7793V71.4138H25.1561V63.6221Z" fill="#00609B"/>
<path d="M28.9092 63.6221H30.0489V65.0204C30.5008 64.4798 31.0055 64.0834 31.5551 63.8167C32.1087 63.5536 32.6989 63.4239 33.342 63.4239C34.0055 63.4239 34.5836 63.5716 35.0924 63.8671C35.6012 64.1663 35.9798 64.5627 36.224 65.0673C36.4682 65.5646 36.5863 66.3467 36.5863 67.4098V71.4174H35.4547V67.6982C35.4547 66.7972 35.414 66.2025 35.3326 65.8998C35.1982 65.3844 34.9499 64.9916 34.5714 64.7357C34.2009 64.4762 33.7206 64.3429 33.1222 64.3429C32.4343 64.3429 31.8237 64.5447 31.2783 64.9447C30.7409 65.3484 30.3827 65.8457 30.2077 66.4368C30.1019 66.826 30.0489 67.5324 30.0489 68.5559V71.4174H28.9092V63.6221Z" fill="#00609B"/>
<path d="M46.1319 63.6221V71.4102H45.0206V70.0696C44.5443 70.5849 44.0111 70.9705 43.4209 71.2228C42.8347 71.4823 42.1834 71.6157 41.4873 71.6157C40.2377 71.6157 39.1752 71.212 38.2919 70.4155C37.4086 69.6191 36.969 68.6388 36.969 67.4963C36.969 66.3719 37.4168 65.4132 38.3082 64.6168C39.1956 63.8167 40.2621 63.4239 41.5199 63.4239C42.2445 63.4239 42.8958 63.5572 43.4778 63.8275C44.0681 64.105 44.581 64.505 45.0247 65.0565V63.6257H46.1319V63.6221ZM41.6135 64.3825C40.9826 64.3825 40.4005 64.5231 39.8672 64.8006C39.334 65.0709 38.9107 65.4565 38.5972 65.9538C38.2838 66.4512 38.121 66.9738 38.121 67.5288C38.121 68.0802 38.2838 68.6027 38.6013 69.1109C38.9188 69.6119 39.3421 70.0011 39.8754 70.2822C40.4168 70.5561 40.9826 70.6966 41.6013 70.6966C42.216 70.6966 42.7981 70.5597 43.3598 70.2822C43.9053 70.0047 44.3367 69.6299 44.638 69.1578C44.931 68.6856 45.0776 68.1559 45.0776 67.5576C45.0776 66.6602 44.7479 65.9034 44.0762 65.2943C43.4087 64.6888 42.5864 64.3825 41.6135 64.3825Z" fill="#00609B"/>
<path d="M48.0165 60.7245H49.1522V63.6221H50.9514V64.4798H49.1522V71.4102H48.0165V64.4798H46.4697V63.6221H48.0165V60.7245Z" fill="#00609B"/>
<path d="M51.3828 60.4073C51.6393 60.4073 51.8632 60.4902 52.0504 60.6524C52.2295 60.8182 52.3231 61.0092 52.3231 61.2435C52.3231 61.4669 52.2295 61.6615 52.0504 61.8201C51.8632 61.9859 51.6393 62.0652 51.3828 62.0652C51.1305 62.0652 50.9107 61.9859 50.7275 61.8201C50.5402 61.6615 50.4507 61.4669 50.4507 61.2435C50.4507 61.0092 50.5402 60.8182 50.7275 60.6524C50.9107 60.4902 51.1264 60.4073 51.3828 60.4073ZM50.817 63.6221H51.9568V71.4102H50.817V63.6221Z" fill="#00609B"/>
<path d="M56.809 63.4202C58.1686 63.4202 59.2921 63.8527 60.1835 64.7249C60.9895 65.5141 61.3966 66.4512 61.3966 67.5396C61.3966 68.628 60.9732 69.583 60.1143 70.3939C59.2554 71.2084 58.1564 71.6156 56.809 71.6156C55.4617 71.6156 54.3626 71.2084 53.5037 70.3939C52.6489 69.583 52.2174 68.628 52.2174 67.5396C52.2174 66.462 52.6245 65.525 53.4345 64.7321C54.326 63.8527 55.4535 63.4202 56.809 63.4202ZM56.805 64.3933C55.8728 64.3933 55.0587 64.7033 54.3911 65.3231C53.7113 65.9394 53.3816 66.6818 53.3816 67.554C53.3816 68.1234 53.5363 68.6424 53.8416 69.1397C54.1509 69.6227 54.5661 69.9975 55.0872 70.2642C55.6123 70.5309 56.1903 70.6642 56.809 70.6642C57.4359 70.6642 58.0098 70.5309 58.539 70.2642C59.0641 69.9975 59.4793 69.6227 59.7846 69.1397C60.0899 68.646 60.2487 68.1234 60.2487 67.554C60.2487 66.6818 59.9027 65.9394 59.2269 65.3231C58.5472 64.7033 57.7412 64.3933 56.805 64.3933Z" fill="#00609B"/>
<path d="M61.8525 63.6221H62.9882V65.0204C63.44 64.4798 63.9366 64.0834 64.4902 63.8167C65.0397 63.5536 65.634 63.4239 66.2812 63.4239C66.9407 63.4239 67.5187 63.5716 68.0316 63.8671C68.5445 64.1663 68.919 64.5627 69.1632 65.0673C69.3993 65.5646 69.5174 66.3467 69.5174 67.4098V71.4174H68.3857V67.6982C68.3857 66.7972 68.345 66.2025 68.2636 65.8998C68.1334 65.3844 67.881 64.9916 67.5106 64.7357C67.1361 64.4762 66.6517 64.3429 66.0533 64.3429C65.3654 64.3429 64.7588 64.5447 64.2175 64.9447C63.6761 65.3484 63.3179 65.8457 63.1388 66.4368C63.037 66.826 62.9841 67.5324 62.9841 68.5559V71.4174H61.8484V63.6221H61.8525Z" fill="#00609B"/>
<path d="M79.0669 63.6221V71.4102H77.9515V70.0696C77.4753 70.5849 76.942 70.9705 76.3599 71.2228C75.7616 71.4823 75.1184 71.6157 74.4183 71.6157C73.1686 71.6157 72.1062 71.212 71.2269 70.4155C70.3436 69.6191 69.8959 68.6388 69.8959 67.4963C69.8959 66.3719 70.3436 65.4132 71.2351 64.6168C72.1306 63.8167 73.1971 63.4239 74.4508 63.4239C75.1713 63.4239 75.8267 63.5572 76.4088 63.8275C76.999 64.105 77.5119 64.505 77.9556 65.0565V63.6257H79.0669V63.6221ZM74.5363 64.3825C73.9135 64.3825 73.3355 64.5231 72.7941 64.8006C72.269 65.0709 71.8375 65.4565 71.5282 65.9538C71.2107 66.4512 71.056 66.9738 71.056 67.5288C71.056 68.0802 71.2188 68.6027 71.5363 69.1109C71.8498 69.6119 72.2731 70.0011 72.8145 70.2822C73.3477 70.5561 73.9217 70.6966 74.5323 70.6966C75.151 70.6966 75.7372 70.5597 76.2908 70.2822C76.8443 70.0047 77.2718 69.6299 77.573 69.1578C77.8742 68.6856 78.0207 68.1559 78.0207 67.5576C78.0207 66.6602 77.6829 65.9034 77.0153 65.2943C76.3477 64.6888 75.5255 64.3825 74.5363 64.3825Z" fill="#00609B"/>
<path d="M80.9313 60.6092H79.7915V71.4102H80.9313V60.6092Z" fill="#00609B"/>
<path d="M84.6558 71.4102V60.8686H86.5282C87.6151 60.8686 88.4088 60.9299 88.9054 61.056C89.6178 61.2218 90.1836 61.5318 90.6069 61.9859C91.0262 62.44 91.2379 62.9734 91.2379 63.586C91.2379 63.9861 91.1402 64.3537 90.9489 64.6816C90.7535 65.006 90.4401 65.3159 90.0126 65.6006C90.7331 65.8998 91.2623 66.2782 91.5961 66.7287C91.934 67.1828 92.1049 67.7162 92.1049 68.336C92.1049 68.9199 91.9258 69.4641 91.5839 69.947C91.2379 70.4371 90.7983 70.7975 90.2528 71.0426C89.7033 71.2877 88.9502 71.4066 87.9896 71.4066H84.6558V71.4102ZM86.919 62.7859V64.9988H87.4115C87.9651 64.9988 88.3722 64.8907 88.6409 64.6888C88.9095 64.487 89.0398 64.2059 89.0398 63.8563C89.0398 63.5284 88.9136 63.2653 88.6612 63.0671C88.4088 62.876 88.0221 62.7823 87.5052 62.7823H86.919V62.7859ZM86.919 66.7899V69.4929H87.4848C88.4251 69.4929 89.0601 69.3884 89.3858 69.1758C89.7155 68.9667 89.8783 68.6568 89.8783 68.2604C89.8783 67.8063 89.687 67.4423 89.3044 67.1828C88.9177 66.9233 88.2826 66.7863 87.3953 66.7863H86.919V66.7899Z" fill="#E90E88"/>
<path d="M101.195 68.0874H94.0833C94.181 68.6352 94.4578 69.0821 94.9096 69.4064C95.3493 69.7308 95.9151 69.8966 96.6111 69.8966C97.4375 69.8966 98.1539 69.6407 98.7441 69.1289L100.604 69.9002C100.144 70.4876 99.5908 70.9165 98.9436 71.194C98.2882 71.4715 97.5189 71.612 96.6315 71.612C95.2475 71.612 94.1199 71.2264 93.2529 70.4552C92.3859 69.6875 91.9503 68.7181 91.9503 67.554C91.9503 66.3683 92.3859 65.3808 93.2488 64.5951C94.1159 63.8095 95.2027 63.4202 96.5134 63.4202C97.9015 63.4202 99.0291 63.8095 99.9042 64.5951C100.771 65.3808 101.203 66.4223 101.203 67.7126L101.195 68.0874ZM98.9843 66.5449C98.8377 66.1088 98.5447 65.7556 98.1172 65.4817C97.6858 65.2114 97.1851 65.0745 96.6152 65.0745C95.9924 65.0745 95.451 65.2258 94.991 65.5322C94.6939 65.7268 94.4252 66.0619 94.1769 66.5449H98.9843Z" fill="#E90E88"/>
<path d="M107.83 63.6221H110.032V71.4102H107.83V70.5885C107.394 70.9525 106.958 71.212 106.531 71.3742C106.096 71.5328 105.623 71.612 105.127 71.612C103.987 71.612 102.998 71.2192 102.167 70.4371C101.341 69.6587 100.926 68.6892 100.926 67.5288C100.926 66.3286 101.321 65.3448 102.131 64.5699C102.933 63.8023 103.91 63.4166 105.053 63.4166C105.583 63.4166 106.083 63.5031 106.543 63.6797C107.007 63.8563 107.431 64.123 107.83 64.4762V63.6221ZM105.501 65.2222C104.817 65.2222 104.247 65.4313 103.8 65.8601C103.348 66.2926 103.116 66.8332 103.116 67.5035C103.116 68.1775 103.348 68.7361 103.808 69.1686C104.272 69.6046 104.838 69.8209 105.509 69.8209C106.205 69.8209 106.779 69.6082 107.239 69.1794C107.691 68.7505 107.919 68.1883 107.919 67.4999C107.919 66.8188 107.691 66.271 107.239 65.8529C106.783 65.4276 106.201 65.2222 105.501 65.2222Z" fill="#E90E88"/>
<path d="M110.598 63.6221H112.828V67.3738C112.828 68.0982 112.885 68.6136 112.999 68.8947C113.113 69.1794 113.296 69.3992 113.549 69.5542C113.797 69.7128 114.106 69.7884 114.473 69.7884C114.847 69.7884 115.153 69.7128 115.413 69.565C115.674 69.4028 115.865 69.1758 115.987 68.873C116.077 68.6496 116.125 68.1703 116.125 67.4387V63.6221H118.332V66.9197C118.332 68.282 118.21 69.2118 117.965 69.7128C117.672 70.3218 117.233 70.7903 116.659 71.1219C116.077 71.4499 115.344 71.612 114.457 71.612C113.488 71.612 112.706 71.421 112.108 71.039C111.509 70.657 111.094 70.1272 110.842 69.4389C110.679 68.9667 110.589 68.109 110.589 66.862V63.6221H110.598Z" fill="#E90E88"/>
<path d="M119.17 60.7461H121.381V63.6221H122.683V65.3051H121.381V71.4102H119.17V65.3051H118.031V63.6221H119.17V60.7461Z" fill="#E90E88"/>
<path d="M121.218 63.6221H123.485L125.769 68.5126L128.301 63.6221H130.572L125.048 74.2682H122.765L124.576 70.83L121.218 63.6221Z" fill="#E90E88"/>
<path d="M133.446 60.8686H140.256V61.8994H134.638V65.2006H140.215V66.2313H134.638V70.3795H140.215V71.4102H133.446V60.8686Z" fill="#00609B"/>
<path d="M139.478 63.6221H140.838L143.183 66.4728L145.507 63.6221H146.858L143.862 67.2981L147.233 71.4102H145.869L143.183 68.1414L140.516 71.4102H139.165L142.503 67.3089L139.478 63.6221Z" fill="#00609B"/>
<path d="M146.797 63.6221H147.933V65.0528C148.381 64.5014 148.89 64.1014 149.472 63.8239C150.062 63.5536 150.705 63.4202 151.421 63.4202C152.671 63.4202 153.738 63.8131 154.637 64.6132C155.521 65.4132 155.964 66.3719 155.964 67.4927C155.964 68.6352 155.525 69.6118 154.641 70.4119C153.762 71.212 152.7 71.612 151.45 71.612C150.754 71.612 150.107 71.4823 149.521 71.2264C148.934 70.9705 148.401 70.5849 147.929 70.0732V74.2682H146.793V63.6221H146.797ZM151.324 64.3825C150.351 64.3825 149.533 64.6852 148.861 65.2907C148.185 65.8998 147.856 66.653 147.856 67.554C147.856 68.1486 148.006 68.6784 148.303 69.1541C148.596 69.6263 149.024 70.0011 149.586 70.2786C150.139 70.5561 150.721 70.693 151.34 70.693C151.947 70.693 152.516 70.5525 153.05 70.2786C153.583 69.9975 154.006 69.6082 154.324 69.1073C154.637 68.6027 154.8 68.0802 154.8 67.5251C154.8 66.9701 154.641 66.4476 154.332 65.9502C154.014 65.4529 153.587 65.0673 153.058 64.797C152.533 64.5231 151.951 64.3825 151.324 64.3825Z" fill="#00609B"/>
<path d="M160.592 63.4202C161.948 63.4202 163.076 63.8527 163.959 64.7249C164.773 65.5141 165.172 66.4512 165.172 67.5396C165.172 68.628 164.753 69.583 163.894 70.3939C163.035 71.2084 161.936 71.6156 160.592 71.6156C159.249 71.6156 158.138 71.2084 157.283 70.3939C156.424 69.583 156.001 68.628 156.001 67.5396C156.001 66.462 156.408 65.525 157.214 64.7321C158.101 63.8527 159.233 63.4202 160.592 63.4202ZM160.592 64.3933C159.656 64.3933 158.842 64.7033 158.166 65.3231C157.499 65.9394 157.157 66.6818 157.157 67.554C157.157 68.1234 157.308 68.6424 157.621 69.1397C157.926 69.6227 158.346 69.9975 158.862 70.2642C159.388 70.5309 159.966 70.6642 160.592 70.6642C161.219 70.6642 161.793 70.5309 162.314 70.2642C162.839 69.9975 163.251 69.6227 163.56 69.1397C163.869 68.646 164.02 68.1234 164.02 67.554C164.02 66.6818 163.686 65.9394 163.002 65.3231C162.327 64.7033 161.521 64.3933 160.592 64.3933Z" fill="#00609B"/>
<path d="M56.5159 39.5368C56.5159 45.8834 50.7112 51.0262 43.543 51.0262H13.1886C6.02035 51.0262 0.203491 45.8834 0.203491 39.5368V12.6585C0.203491 6.31553 6.02035 1.16908 13.1886 1.16908H43.543C50.7112 1.16908 56.5159 6.31553 56.5159 12.6585V39.5368Z" stroke="#E90E88"/>
<path d="M53.9595 38.3115C53.9595 44.0886 48.6759 48.7629 42.163 48.7629H14.5645C8.05156 48.7629 2.76794 44.0886 2.76794 38.3115V13.8874C2.76794 8.1067 8.05156 3.43958 14.5645 3.43958H42.1671C48.6759 3.43958 53.9636 8.1067 53.9636 13.8838V38.3115H53.9595Z" fill="#E90E88"/>
<path d="M32.2268 39.1152C30.2607 39.1152 28.665 37.7024 28.665 35.9689V29.3809C28.665 27.6438 30.2607 26.2274 32.2268 26.2274H38.4629C40.429 26.2274 42.0125 27.6402 42.0125 29.3809V35.9689C42.0125 37.7024 40.429 39.1152 38.4629 39.1224L32.2268 39.1152Z" fill="white"/>
<path d="M38.8943 44.3481C33.2403 44.3481 28.6609 40.29 28.6609 35.2877C28.6609 30.2891 33.2403 26.231 38.8943 26.231C44.5443 26.231 49.1196 30.2891 49.1237 35.2877C49.1237 40.29 44.5484 44.3481 38.8943 44.3481Z" fill="white"/>
<path d="M43.2214 22.4432C43.2214 24.1768 41.6298 25.5859 39.6719 25.5859H32.2268C30.2607 25.5859 28.665 24.1768 28.665 22.4432V16.922C28.665 15.1849 30.2607 13.7721 32.2268 13.7721H39.6719C41.6298 13.7721 43.2214 15.1849 43.2214 16.922V22.4432Z" fill="white"/>
<path d="M49.1238 16.5327C49.1278 21.535 44.5484 25.5895 38.8985 25.5895C33.2526 25.5895 28.665 21.535 28.665 16.5327C28.665 11.5305 33.2526 7.4724 38.8985 7.4724C44.5484 7.4724 49.1278 11.5268 49.1238 16.5327Z" fill="white"/>
<path d="M24.0978 12.7018C26.0558 12.7018 27.6596 14.1073 27.6596 15.8552V22.4469C27.6596 24.1804 26.0558 25.5895 24.0978 25.5895H17.8576C15.8915 25.5895 14.2999 24.1804 14.2999 22.4469V15.8552C14.2999 14.1181 15.8915 12.7018 17.8576 12.7018H24.0978Z" fill="white"/>
<path d="M17.4261 7.4724C23.072 7.4724 27.6554 11.5305 27.6554 16.5327C27.6554 21.535 23.072 25.5931 17.4261 25.5931C11.772 25.5931 7.19263 21.535 7.19263 16.5327C7.19263 11.5268 11.772 7.4724 17.4261 7.4724Z" fill="white"/>
<path d="M13.1031 29.3809C13.1031 27.6438 14.6907 26.2274 16.6527 26.2274H24.0978C26.0557 26.2274 27.6595 27.6402 27.6595 29.3809V34.9021C27.6595 36.6356 26.0557 38.0484 24.0978 38.0484H16.6527C14.6907 38.0484 13.1031 36.6356 13.1031 34.9021V29.3809Z" fill="white"/>
<path d="M7.19263 35.2877C7.19263 30.2891 11.772 26.231 17.4261 26.231C23.072 26.231 27.6554 30.2891 27.6554 35.2877C27.6554 40.29 23.072 44.3481 17.4261 44.3481C11.772 44.3481 7.19263 40.29 7.19263 35.2877Z" fill="white"/>
<path d="M75.5662 2.14215H67.425V52.1074H75.5662V2.14215Z" fill="#006D33"/>
<path d="M109.083 1.77094C110.821 2.16738 112.45 2.74762 113.988 3.52247C115.527 4.2865 116.915 5.21272 118.148 6.30472C119.203 7.39672 120.086 8.59684 120.794 9.91228C121.482 11.2205 121.979 12.5972 122.256 14.0388C122.256 14.1361 122.28 14.2514 122.305 14.374C122.333 14.4965 122.345 14.6118 122.345 14.7019V15.1128V15.448C122.345 16.7418 122.125 17.9924 121.714 19.2033C121.303 20.4142 120.697 21.5711 119.911 22.6595C119.52 23.3082 119.024 23.874 118.442 24.3714C117.847 24.8651 117.216 25.3084 116.553 25.7048C117.501 26.2094 118.405 26.75 119.239 27.3446C120.074 27.9357 120.855 28.5844 121.588 29.2727C122.822 30.3143 123.737 31.5396 124.356 32.9524C124.971 34.3651 125.227 35.8139 125.113 37.306C125.166 38.7872 124.991 40.2432 124.572 41.6559C124.149 43.0723 123.542 44.4166 122.76 45.7032C121.804 46.9466 120.672 48.0566 119.362 49.0477C118.051 50.0387 116.581 50.81 114.953 51.3542C114.676 51.4515 114.387 51.5416 114.115 51.6209C113.838 51.6966 113.553 51.7759 113.276 51.8804C112.93 51.9236 112.633 51.9777 112.348 52.0281C112.063 52.0786 111.79 52.1038 111.501 52.1038H96.3098V45.6311H110.589C111.884 45.4329 113.052 44.95 114.115 44.1859C115.177 43.4147 115.959 42.4885 116.471 41.3929C116.74 40.7441 116.935 40.0954 117.054 39.4251C117.163 38.7548 117.196 38.07 117.135 37.3816C117.245 36.095 116.992 34.8625 116.374 33.6984C115.763 32.5343 114.888 31.5504 113.777 30.7612C112.767 30.4152 111.741 30.1377 110.712 29.9431C109.678 29.7449 108.595 29.6223 107.48 29.5719L96.3058 29.4998V23.11H107.227C108.518 22.9622 109.718 22.5658 110.834 21.9279C111.957 21.2756 112.881 20.4575 113.606 19.4664C114.001 18.8717 114.281 18.2302 114.444 17.5347C114.611 16.8427 114.672 16.1471 114.611 15.4516C114.672 14.3163 114.42 13.2351 113.866 12.2188C113.296 11.2025 112.515 10.3484 111.501 9.6528C110.948 9.20951 110.317 8.82389 109.621 8.49953C108.916 8.17518 108.18 7.94452 107.394 7.79676C107.117 7.69224 106.828 7.62017 106.551 7.56971C106.271 7.52286 105.994 7.4724 105.713 7.42195C105.436 7.42195 105.151 7.40753 104.874 7.38951C104.598 7.36428 104.317 7.34987 104.036 7.34987H103.743H103.446C103.336 7.40032 103.238 7.42195 103.148 7.42195H102.859C101.459 7.42195 100.128 7.68504 98.8702 8.20401C97.6043 8.72658 96.5052 9.45818 95.5446 10.3952C95.2108 10.9394 94.9218 11.5016 94.6653 12.0638C94.417 12.6369 94.2053 13.2495 94.0344 13.8911C93.8716 14.5326 93.7535 15.2209 93.7006 15.9345C93.6395 16.6553 93.6395 17.3617 93.7006 18.0536V52.111H86.2311V17.9815C86.3451 16.6877 86.5242 15.3867 86.7725 14.0785C87.0248 12.7666 87.3464 11.4656 87.7453 10.1718C88.1809 9.3825 88.6938 8.63648 89.2474 7.94452C89.8213 7.25256 90.4523 6.60745 91.189 6.0092C92.3573 4.81989 93.7454 3.86484 95.341 3.14765C96.9367 2.43047 98.5975 2.01962 100.344 1.92231L104.699 1.47542L109.083 1.77094Z" fill="#006D33"/>
<path d="M156.355 1.99078H164.671V8.61125C163.942 8.5644 163.202 8.52115 162.44 8.49953C161.691 8.47791 160.947 8.46349 160.226 8.46349C159.322 8.46349 158.431 8.49953 157.527 8.57521C156.632 8.6509 155.74 8.73739 154.841 8.82749C153.554 9.03292 152.28 9.31763 151.018 9.68523C149.761 10.0636 148.564 10.5177 147.453 11.0583C146.5 11.5088 145.592 12.0062 144.725 12.554C143.854 13.0946 143.028 13.7145 142.246 14.4028C140.96 15.6462 139.906 17.0229 139.096 18.5329C138.286 20.043 137.736 21.6432 137.459 23.3298L164.753 23.2613V29.8025H137.459C137.508 31.4856 137.858 33.0929 138.505 34.6318C139.153 36.1671 140.069 37.5799 141.233 38.8665C142.014 39.7098 142.857 40.5063 143.761 41.2451C144.656 41.9911 145.633 42.6542 146.7 43.2525C148.543 44.0922 150.473 44.7301 152.492 45.1482C154.503 45.5662 156.554 45.7825 158.622 45.7825L164.753 45.7032V52.1038H158.622L152.659 51.9524C151.202 51.7542 149.777 51.4407 148.377 51.0262C146.972 50.6046 145.629 50.0928 144.339 49.5018C143.109 48.954 141.953 48.3521 140.866 47.6745C139.763 47.0042 138.721 46.2798 137.716 45.4833C136.649 44.4923 135.648 43.4399 134.687 42.3263C133.735 41.2127 132.892 40.0306 132.176 38.7908C131.61 37.8033 131.138 36.7978 130.751 35.7815C130.348 34.7688 130.047 33.7164 129.831 32.6244C129.656 31.6261 129.522 30.6278 129.404 29.6079C129.286 28.5988 129.233 27.5897 129.233 26.5986C129.233 25.8093 129.282 25.0057 129.363 24.1804C129.448 23.3659 129.55 22.5586 129.656 21.7657C130.1 20.4827 130.625 19.2141 131.207 17.9779C131.801 16.7382 132.424 15.502 133.1 14.2551C133.995 12.9684 135.033 11.7683 136.206 10.6547C137.386 9.53747 138.672 8.53917 140.073 7.64179C141.188 7.00028 142.336 6.3768 143.516 5.78575C144.689 5.18749 145.894 4.61807 147.123 4.07387C148.576 3.52607 150.09 3.07918 151.662 2.7332C153.225 2.38722 154.792 2.16017 156.359 2.06647V1.99078H156.355Z" fill="#006D33"/>
<path d="M18.8508 81.7103V89.0047C18.8508 90.4139 18.8752 91.8014 18.9282 93.1637H17.3895V92.2087H4.60378V93.2322H3.06104C3.10988 91.823 3.13838 90.367 3.13838 88.8678V81.7067C3.13838 80.3444 3.11395 79.0722 3.06104 77.8901H18.9282C18.8752 79.029 18.8508 80.3012 18.8508 81.7103ZM17.3854 91.1887V78.9137H4.60378V91.1887H17.3854ZM13.38 80.7553C14.1493 80.7553 14.9715 80.7337 15.8427 80.6868V81.9158C15.0733 81.8725 14.2511 81.8473 13.38 81.8473H11.4546V84.0962H12.8426C13.7667 84.0962 14.6378 84.0745 15.46 84.0277V85.2566C14.6378 85.2134 13.7667 85.1882 12.8426 85.1882H11.4546V88.2551H13.612C14.536 88.2551 15.4071 88.2335 16.2294 88.1866V89.4156C15.46 89.3723 14.5848 89.3471 13.612 89.3471H8.37721C7.50204 89.3471 6.63093 89.3723 5.75983 89.4156V88.1866C6.63093 88.2335 7.50611 88.2551 8.37721 88.2551H10.0706V85.1882H8.99187C8.11669 85.1882 7.29851 85.2134 6.52917 85.2566V84.0277C7.29851 84.0745 8.12077 84.0962 8.99187 84.0962H10.0706V81.8473H8.91453C7.99051 81.8473 7.09091 81.8689 6.2198 81.9158V80.6868C7.09091 80.7337 7.99051 80.7553 8.91453 80.7553H13.38ZM15.1547 87.0946C14.6418 87.3685 14.2022 87.6172 13.844 87.8443C13.6893 87.6641 13.2538 87.1847 12.5333 86.4135C12.9444 86.1396 13.3026 85.8909 13.612 85.6639C13.8684 85.8909 14.3813 86.3702 15.1547 87.0946Z" fill="#0C7F40"/>
<path d="M44.1088 80.2759C43.7506 81.3679 43.3638 82.4563 42.9527 83.5483C43.6203 84.4601 44.0681 85.2314 44.3001 85.8657C44.5321 86.5036 44.581 87.0838 44.4548 87.6064C44.3245 88.129 43.9663 88.5831 43.3761 88.9687C42.7858 89.3543 42.106 89.5922 41.3367 89.6859C41.0803 88.9579 40.8482 88.4353 40.6447 88.1182C41.7723 88.1182 42.4561 87.9488 42.6841 87.6064C42.9161 87.264 42.9649 86.8568 42.8387 86.3774C42.7085 85.9017 42.5294 85.4332 42.3014 84.9791C42.0694 84.525 41.7478 84.0709 41.3408 83.6168C41.5972 82.9825 41.8537 82.2761 42.1101 81.5013C42.3666 80.73 42.623 79.9804 42.8794 79.2524H40.3394V92.8898H38.7234C38.7722 91.6176 38.8007 90.367 38.8007 89.1381V81.0256C38.8007 80.0273 38.7763 79.047 38.7234 78.0919H44.8862C44.7234 78.4596 44.467 79.1876 44.1088 80.2759ZM45.3788 88.2227C45.8143 87.3361 46.2133 86.4387 46.5715 85.5305C46.9826 85.6675 47.5199 85.8729 48.1875 86.1432C47.6746 86.9613 47.1983 87.8262 46.7628 88.7344C46.3272 89.6462 45.851 90.5761 45.3381 91.5311C44.927 91.3509 44.4141 91.1455 43.7994 90.9184C44.4181 90.0066 44.9432 89.1092 45.3788 88.2227ZM53.349 82.4599C54.1712 82.4599 54.9935 82.4383 55.8117 82.3915V83.6853C55.1441 83.642 54.3992 83.6168 53.5769 83.6168H51.0369V91.2536C51.0369 91.9816 50.756 92.3997 50.1902 92.515C49.6244 92.6267 48.8551 92.7528 47.8781 92.8898C47.8252 92.3456 47.6217 91.7978 47.2635 91.2536C48.2893 91.2536 48.9202 91.232 49.1522 91.1851C49.3842 91.1419 49.4982 90.9797 49.4982 90.7094V83.6168H47.5728C46.4412 83.6168 45.5172 83.642 44.8008 83.6853V82.3915C45.9283 82.4383 46.8523 82.4599 47.5728 82.4599H53.349ZM52.5023 78.4379C53.3246 78.4379 54.041 78.3947 54.6597 78.301V79.5984C54.0451 79.5552 53.3246 79.5299 52.5023 79.5299H48.4195C47.5443 79.5299 46.775 79.5515 46.1074 79.5984V78.301C46.7221 78.3911 47.5443 78.4379 48.5701 78.4379H52.5023ZM56.2757 90.504C55.7628 90.6842 55.2214 90.9112 54.6597 91.1851C53.8904 89.5021 52.9908 87.8443 51.965 86.2081C52.2744 86.0711 52.7587 85.8224 53.4263 85.4584C54.7086 87.6893 55.6611 89.3687 56.2757 90.504Z" fill="#0C7F40"/>
<path d="M86.0031 79.5948H88.0058C89.0316 79.5948 89.8295 79.5732 90.3953 79.5263V80.6868C89.8295 80.6436 89.0357 80.6183 88.0058 80.6183H83.8457V82.2545H87.0045C87.8267 82.2545 88.6205 82.2329 89.3939 82.1861V83.2781C88.6246 83.2348 87.8267 83.2096 87.0045 83.2096H83.8457V84.7773H88.6978C89.6707 84.7773 90.5703 84.7557 91.3926 84.7088V85.8693C90.6232 85.8261 89.7236 85.8008 88.6978 85.8008H77.6096C76.5309 85.8008 75.6069 85.8224 74.8375 85.8693V84.7088C75.6069 84.7557 76.5309 84.7773 77.6096 84.7773H82.4617V83.2096H79.535C78.6598 83.2096 77.7887 83.2312 76.9176 83.2781V82.1861C77.7887 82.2329 78.6639 82.2545 79.535 82.2545H82.4617V80.6183H78.5336C77.7114 80.6183 76.8118 80.64 75.8389 80.6868V79.5263C76.8118 79.5732 77.7114 79.5948 78.5336 79.5948H80.1496C79.8403 79.0939 79.3803 78.528 78.7616 77.8901C79.1727 77.6631 79.5553 77.436 79.9176 77.209L81.5336 79.0506C81.0696 79.2308 80.687 79.4146 80.3776 79.5948H84.5377C84.9977 78.9569 85.4862 78.1172 85.9991 77.072C86.4102 77.3459 86.9231 77.5946 87.5377 77.8217C87.2854 78.0055 86.7725 78.5965 86.0031 79.5948ZM77.6055 91.5275C78.5784 91.2536 79.4536 90.8572 80.2229 90.3346C80.9922 89.812 81.5336 89.2318 81.8389 88.5975H78.9895C77.8579 88.5975 76.6774 88.6227 75.4481 88.666V87.5055C76.6815 87.5523 77.862 87.574 78.9895 87.574H82.1483C82.1971 86.9829 82.2256 86.482 82.2256 86.0747C82.8932 86.2549 83.4834 86.3486 83.9963 86.3486C83.8417 86.7559 83.7155 87.1667 83.6096 87.5776H87.383C88.7182 87.5776 89.8742 87.556 90.8471 87.5091V88.6696C89.8702 88.6263 88.7426 88.6011 87.4604 88.6011H84.3016C84.9163 89.239 85.5228 89.7363 86.113 90.1003C86.7033 90.4643 87.2284 90.7382 87.6924 90.9184C88.1524 91.1022 88.6938 91.2716 89.3084 91.4302C89.9231 91.5888 90.7698 91.7365 91.8485 91.8735C91.5391 92.2843 91.2338 92.7601 90.9245 93.3043C89.744 93.0772 88.7426 92.7925 87.9204 92.4501C87.0981 92.1077 86.2636 91.6536 85.417 91.0878C84.5703 90.5184 83.8132 89.8264 83.1456 89.0083C82.6856 89.6895 82.2338 90.2373 81.7982 90.6445C81.3627 91.0554 80.8091 91.441 80.1415 91.805C79.4739 92.169 78.7819 92.4753 78.0614 92.724C77.3409 92.9727 76.5716 93.1889 75.7493 93.3727C75.5947 92.9619 75.2894 92.5294 74.8253 92.0789C75.7086 91.9816 76.6326 91.8014 77.6055 91.5275Z" fill="#0C7F40"/>
<path d="M112.185 79.5262C112.185 78.7081 112.157 77.9801 112.108 77.3458H113.646C113.594 78.1206 113.569 78.845 113.569 79.5262V82.2544C114.237 82.2544 114.904 82.2327 115.572 82.1859V83.4797C114.851 83.4365 114.184 83.4112 113.569 83.4112V90.7741C113.569 91.6355 113.594 92.3202 113.646 92.8212H112.108C112.157 92.3671 112.185 91.6859 112.185 90.7741V83.4112C111.465 83.4112 110.748 83.4329 110.028 83.4797V82.1859C110.797 82.2327 111.518 82.2544 112.185 82.2544V79.5262ZM124.043 88.118C124.043 87.754 124.014 87.39 123.965 87.026H125.504C125.451 87.39 125.427 87.754 125.427 88.118H125.964C126.888 88.118 127.682 88.0964 128.353 88.0495V89.3434C127.633 89.3001 126.839 89.2749 125.964 89.2749H125.427V91.5237C125.427 92.2517 125.158 92.6842 124.617 92.8176C124.079 92.9545 123.395 93.0915 122.577 93.2248C122.476 92.7239 122.268 92.2481 121.963 91.794C122.834 91.794 123.4 91.7688 123.656 91.7256C123.912 91.6787 124.043 91.4084 124.043 90.9075V89.2713H117.575C116.496 89.2713 115.649 89.3181 115.035 89.4082V88.0459C115.649 88.0928 116.496 88.1144 117.575 88.1144H124.043V88.118ZM120.347 78.982C120.347 78.2107 120.322 77.6413 120.269 77.2773H121.885C121.832 77.7314 121.808 78.3008 121.808 78.982H124.889C126.07 78.982 126.941 78.9603 127.507 78.9135V80.1424C126.941 80.0992 126.094 80.074 124.967 80.074H121.808V81.166H126.273C126.22 81.8471 126.196 82.5066 126.196 83.1445V84.6438C126.196 85.5087 126.22 86.2115 126.273 86.7593H124.812V86.0782H121.808C121.808 86.4854 121.832 86.8963 121.885 87.3071H120.269C120.318 86.853 120.347 86.4458 120.347 86.0782H117.807V87.2386H116.268C116.317 86.7377 116.345 86.1034 116.345 85.3285V83.213C116.345 82.3517 116.317 81.6669 116.268 81.166H120.351V80.074H118.735C117.709 80.074 116.708 80.0956 115.731 80.1424V78.9135C116.655 78.9603 117.632 78.982 118.657 78.982H120.347ZM120.347 91.1886C119.887 91.4625 119.447 91.7328 119.036 92.0067C118.625 91.4156 118.112 90.803 117.497 90.1651C117.908 89.938 118.319 89.6893 118.731 89.4154C119.345 90.0497 119.887 90.6408 120.347 91.1886ZM120.347 83.0725V82.1859H117.807V83.0725H120.347ZM120.347 85.051V84.096H117.807V85.051H120.347ZM124.816 83.0725V82.1859H121.812V83.0725H124.816ZM124.816 85.051V84.096H121.812V85.051H124.816ZM123.583 77.8215L124.739 77.1404C124.995 77.4575 125.353 77.8215 125.817 78.2323C125.353 78.4125 124.971 78.618 124.661 78.845C124.25 78.481 123.892 78.1423 123.583 77.8215Z" fill="#0C7F40"/>
<path d="M164.166 83.4835C163.702 83.8475 163.344 84.2583 163.088 84.7124C159.595 83.3033 156.953 81.4869 155.154 79.256C152.74 81.6671 150.094 83.5988 147.221 85.0512C146.708 84.4133 146.272 84.0277 145.91 83.8907C147.811 83.2997 149.618 82.323 151.34 80.9571C153.058 79.5948 154.23 78.3442 154.845 77.2054C155.305 77.4793 155.846 77.728 156.461 77.955L156.001 78.3623C157.8 80.6436 160.519 82.3482 164.166 83.4835ZM150.921 91.3257C154.308 91.2356 156.929 91.1455 158.777 91.0518C158.317 90.5977 157.621 90.0066 156.697 89.2786C157.055 89.0047 157.417 88.7092 157.776 88.3921C158.492 88.9831 159.188 89.5634 159.856 90.1292C160.523 90.6986 161.293 91.3906 162.168 92.2087C161.81 92.4826 161.37 92.8213 160.857 93.2322C160.397 92.6411 160.01 92.2303 159.701 92.0032C158.521 92.0465 156.607 92.1402 153.966 92.2771C151.32 92.4141 149.614 92.5727 148.845 92.7529C148.588 92.1618 148.385 91.7077 148.23 91.3906C149.052 91.1635 150.025 90.5833 151.157 89.6535C152.284 88.7236 153.082 87.9596 153.546 87.3685H151.312C149.923 87.3685 148.641 87.3902 147.461 87.437V86.2765C148.694 86.3234 149.952 86.345 151.234 86.345H158.936C160.218 86.345 161.476 86.3234 162.709 86.2765V87.437C161.476 87.3938 160.116 87.3685 158.626 87.3685H154.006C154.417 87.7325 154.8 88.0064 155.162 88.1866C154.796 88.4137 153.383 89.4588 150.921 91.3257ZM156.542 83.2096C157.67 83.2096 158.594 83.188 159.314 83.1411V84.3701C158.545 84.3268 157.621 84.3016 156.542 84.3016H153.229C152.252 84.3016 151.43 84.3268 150.766 84.3701V83.1411C151.434 83.188 152.227 83.2096 153.156 83.2096H156.542Z" fill="#0C7F40"/>
</g>
<defs>
<clipPath id="clip0_2056_159">
<rect width="165.172" height="92.3802" fill="white" transform="translate(0 0.988892)"/>
</clipPath>
</defs>
</svg>
