<svg width="95" height="88" viewBox="0 0 95 88" fill="none" xmlns="http://www.w3.org/2000/svg">
<path d="M50.4688 65.6114H41.5625C40.7423 65.6114 40.0781 64.944 40.0781 64.1204C40.0781 63.2969 40.7423 62.6294 41.5625 62.6294H50.4688C51.289 62.6294 51.9531 63.2969 51.9531 64.1204C51.9531 64.944 51.289 65.6114 50.4688 65.6114Z" fill="#40033F"/>
<mask id="mask0_2084_551" style="mask-type:luminance" maskUnits="userSpaceOnUse" x="0" y="0" width="95" height="66">
<path d="M0 0H95V65.6246H0V0Z" fill="white"/>
</mask>
<g mask="url(#mask0_2084_551)">
<path d="M93.5156 65.6116H77.1875C76.3673 65.6116 75.7031 64.9441 75.7031 64.1206C75.7031 63.297 76.3673 62.6295 77.1875 62.6295H92.0312V2.98887H2.96875V62.6295H14.8438C15.664 62.6295 16.3281 63.297 16.3281 64.1206C16.3281 64.9441 15.664 65.6116 14.8438 65.6116H1.48438C0.664151 65.6116 0 64.9441 0 64.1206V1.49785C0 0.674307 0.664151 0.00683594 1.48438 0.00683594H93.5156C94.3358 0.00683594 95 0.674307 95 1.49785V64.1206C95 64.9441 94.3358 65.6116 93.5156 65.6116Z" fill="#40033F"/>
</g>
<path d="M68.2812 65.6114H59.375C58.5548 65.6114 57.8906 64.944 57.8906 64.1204C57.8906 63.2969 58.5548 62.6294 59.375 62.6294H68.2812C69.1015 62.6294 69.7656 63.2969 69.7656 64.1204C69.7656 64.944 69.1015 65.6114 68.2812 65.6114Z" fill="#40033F"/>
<path d="M32.6562 65.6114H23.75C22.9298 65.6114 22.2656 64.944 22.2656 64.1204C22.2656 63.2969 22.9298 62.6294 23.75 62.6294H32.6562C33.4765 62.6294 34.1406 63.2969 34.1406 64.1204C34.1406 64.944 33.4765 65.6114 32.6562 65.6114Z" fill="#40033F"/>
<mask id="mask1_2084_551" style="mask-type:luminance" maskUnits="userSpaceOnUse" x="0" y="14" width="95" height="5">
<path d="M0 14.6179H95V18.0184H0V14.6179Z" fill="white"/>
</mask>
<g mask="url(#mask1_2084_551)">
<path d="M93.5156 17.8988H1.48438C0.664151 17.8988 0 17.2313 0 16.4078C0 15.5842 0.664151 14.9167 1.48438 14.9167H93.5156C94.3358 14.9167 95 15.5842 95 16.4078C95 17.2313 94.3358 17.8988 93.5156 17.8988Z" fill="#40033F"/>
</g>
<path d="M10.3906 10.4437C10.2943 10.4437 10.198 10.4338 10.1017 10.4138C10.0054 10.3939 9.91244 10.3674 9.82278 10.3308C9.73312 10.291 9.6501 10.2478 9.56708 10.1914C9.40436 10.0851 9.26489 9.94562 9.15863 9.77958C9.10217 9.69988 9.05901 9.61354 9.01916 9.52388C8.98263 9.43422 8.95606 9.33792 8.93614 9.24494C8.89629 9.05233 8.89629 8.85309 8.93614 8.66049C8.95606 8.5675 8.98263 8.4712 9.01916 8.38154C9.05901 8.29188 9.10217 8.20554 9.15863 8.12584C9.26489 7.95981 9.40436 7.82034 9.56708 7.71407C9.6501 7.65762 9.73312 7.61445 9.82278 7.5746C10.1881 7.42517 10.5965 7.42517 10.9585 7.5746C11.0481 7.61445 11.1345 7.65762 11.2142 7.71407C11.3802 7.82034 11.5197 7.95981 11.6259 8.12584C11.6791 8.20554 11.7256 8.29188 11.7621 8.38154C11.7986 8.4712 11.8285 8.5675 11.8451 8.66049C11.885 8.85309 11.885 9.05233 11.8451 9.24494C11.8285 9.33792 11.7986 9.43422 11.7621 9.52388C11.7256 9.61354 11.6791 9.69988 11.6259 9.77958C11.5197 9.94562 11.3802 10.0851 11.2142 10.1914C11.1345 10.2478 11.0481 10.291 10.9585 10.3308C10.8688 10.3674 10.7758 10.3939 10.6795 10.4138C10.5865 10.4338 10.4902 10.4437 10.3906 10.4437Z" fill="#40033F"/>
<path d="M17.8125 10.4437C17.7162 10.4437 17.6199 10.4338 17.5236 10.4138C17.4273 10.3939 17.3343 10.3674 17.2447 10.3308C17.155 10.291 17.072 10.2478 16.989 10.1914C16.8262 10.0851 16.6868 9.94562 16.5805 9.77958C16.524 9.69988 16.4809 9.61354 16.441 9.52388C16.4045 9.43422 16.3779 9.33792 16.358 9.24494C16.3182 9.05233 16.3182 8.85309 16.358 8.66049C16.3779 8.5675 16.4045 8.4712 16.441 8.38154C16.4809 8.29188 16.524 8.20554 16.5805 8.12584C16.6868 7.95981 16.8262 7.82034 16.989 7.71407C17.072 7.65762 17.155 7.61445 17.2447 7.5746C17.6099 7.42517 18.0184 7.42517 18.3803 7.5746C18.47 7.61445 18.5563 7.65762 18.636 7.71407C18.7191 7.7672 18.7954 7.8303 18.8652 7.90003C18.9316 7.96977 18.9947 8.04615 19.0478 8.12584C19.1043 8.20886 19.1508 8.2952 19.1873 8.38486C19.2238 8.47452 19.2504 8.5675 19.2703 8.66381C19.3102 8.85641 19.3102 9.05233 19.2703 9.24494C19.2504 9.34124 19.2238 9.43422 19.1873 9.52388C19.1508 9.61354 19.1043 9.69988 19.0478 9.7829C18.9416 9.94562 18.8021 10.0884 18.6394 10.1947C18.5597 10.2478 18.4733 10.2943 18.3837 10.3308C18.294 10.3707 18.201 10.3972 18.1047 10.4172C18.0084 10.4338 17.9121 10.4437 17.8125 10.4437Z" fill="#40033F"/>
<path d="M25.2344 10.4437C25.1381 10.4437 25.0418 10.4338 24.9455 10.4138C24.8492 10.3939 24.7562 10.3674 24.6665 10.3308C24.5769 10.291 24.4938 10.2478 24.4108 10.1914C24.2481 10.0851 24.1086 9.94562 24.0024 9.77958C23.9459 9.69988 23.9028 9.61354 23.8629 9.52388C23.8264 9.43422 23.7998 9.33792 23.7799 9.24494C23.74 9.05233 23.74 8.85309 23.7799 8.66049C23.7998 8.5675 23.8264 8.4712 23.8629 8.38154C23.9028 8.29188 23.9459 8.20554 24.0024 8.12584C24.1086 7.95981 24.2481 7.82034 24.4108 7.71407C24.4938 7.65762 24.5769 7.61445 24.6665 7.5746C25.0318 7.42517 25.4403 7.42517 25.8022 7.5746C25.8919 7.61445 25.9782 7.65762 26.0579 7.71407C26.224 7.82034 26.3634 7.95981 26.4697 8.12584C26.5228 8.20554 26.5693 8.29188 26.6058 8.38154C26.6424 8.4712 26.6723 8.5675 26.6889 8.66049C26.7287 8.85309 26.7287 9.05233 26.6889 9.24494C26.6723 9.33792 26.6424 9.43422 26.6058 9.52388C26.5693 9.61354 26.5228 9.69988 26.4697 9.77958C26.3634 9.94562 26.224 10.0851 26.0579 10.1914C25.9782 10.2478 25.8919 10.291 25.8022 10.3308C25.7126 10.3674 25.6196 10.3939 25.5233 10.4138C25.4303 10.4338 25.334 10.4437 25.2344 10.4437Z" fill="#40033F"/>
<mask id="mask2_2084_551" style="mask-type:luminance" maskUnits="userSpaceOnUse" x="54" y="6" width="41" height="6">
<path d="M54.3341 6.96692H95V11.2175H54.3341V6.96692Z" fill="white"/>
</mask>
<g mask="url(#mask2_2084_551)">
<path d="M93.5156 10.4438H56.4062C55.586 10.4438 54.9219 9.77635 54.9219 8.95281C54.9219 8.12926 55.586 7.46179 56.4062 7.46179H93.5156C94.3358 7.46179 95 8.12926 95 8.95281C95 9.77635 94.3358 10.4438 93.5156 10.4438Z" fill="#40033F"/>
</g>
<path d="M23.75 82.0126H14.8438C14.0235 82.0126 13.3594 81.3451 13.3594 80.5215V58.1563C13.3594 57.3328 14.0235 56.6653 14.8438 56.6653H23.75C24.5702 56.6653 25.2344 57.3328 25.2344 58.1563V80.5215C25.2344 81.3451 24.5702 82.0126 23.75 82.0126ZM16.3281 79.0305H22.2656V59.6473H16.3281V79.0305Z" fill="#40033F"/>
<path d="M41.5625 82.0126H32.6562C31.836 82.0126 31.1719 81.3451 31.1719 80.5216V49.2103C31.1719 48.3867 31.836 47.7192 32.6562 47.7192H41.5625C42.3827 47.7192 43.0469 48.3867 43.0469 49.2103V80.5216C43.0469 81.3451 42.3827 82.0126 41.5625 82.0126ZM34.1406 79.0306H40.0781V50.7013H34.1406V79.0306Z" fill="#40033F"/>
<path d="M59.375 82.0126H50.4688C49.6485 82.0126 48.9844 81.3451 48.9844 80.5216V46.2282C48.9844 45.4047 49.6485 44.7372 50.4688 44.7372H59.375C60.1952 44.7372 60.8594 45.4047 60.8594 46.2282V80.5216C60.8594 81.3451 60.1952 82.0126 59.375 82.0126ZM51.9531 79.0306H57.8906V47.7192H51.9531V79.0306Z" fill="#40033F"/>
<path d="M77.1875 82.0126H68.2812C67.461 82.0126 66.7969 81.3451 66.7969 80.5215V40.2641C66.7969 39.4405 67.461 38.7731 68.2812 38.7731H77.1875C78.0077 38.7731 78.6719 39.4405 78.6719 40.2641V80.5215C78.6719 81.3451 78.0077 82.0126 77.1875 82.0126ZM69.7656 79.0305H75.7031V41.7551H69.7656V79.0305Z" fill="#40033F"/>
<mask id="mask3_2084_551" style="mask-type:luminance" maskUnits="userSpaceOnUse" x="6" y="78" width="78" height="10">
<path d="M6.72778 78.3762H83.2379V87.9865H6.72778V78.3762Z" fill="white"/>
</mask>
<g mask="url(#mask3_2084_551)">
<path d="M78.6718 87.9765H11.8749C9.41758 87.9765 7.42181 85.9741 7.42181 83.5034C7.42181 81.0328 9.41758 79.0304 11.8749 79.0304H78.6718C81.1325 79.0304 83.1249 81.0328 83.1249 83.5034C83.1249 85.9741 81.1325 87.9765 78.6718 87.9765ZM11.8749 82.0124C11.0547 82.0124 10.3906 82.6799 10.3906 83.5034C10.3906 84.327 11.0547 84.9945 11.8749 84.9945H78.6718C79.492 84.9945 80.1562 84.327 80.1562 83.5034C80.1562 82.6799 79.492 82.0124 78.6718 82.0124H11.8749Z" fill="#40033F"/>
</g>
<path d="M19.2969 50.7012C16.0193 50.7012 13.3594 48.0313 13.3594 44.7371C13.3594 41.443 16.0193 38.7731 19.2969 38.7731C22.5778 38.7731 25.2344 41.443 25.2344 44.7371C25.2344 48.0313 22.5778 50.7012 19.2969 50.7012ZM19.2969 41.7551C17.6597 41.7551 16.3281 43.09 16.3281 44.7371C16.3281 46.3842 17.6597 47.7192 19.2969 47.7192C20.9373 47.7192 22.2656 46.3842 22.2656 44.7371C22.2656 43.09 20.9373 41.7551 19.2969 41.7551Z" fill="#40033F"/>
<path d="M37.1094 37.2821C33.8318 37.2821 31.1719 34.6123 31.1719 31.3181C31.1719 28.0239 33.8318 25.354 37.1094 25.354C40.3903 25.354 43.0469 28.0239 43.0469 31.3181C43.0469 34.6123 40.3903 37.2821 37.1094 37.2821ZM37.1094 28.336C35.4722 28.336 34.1406 29.671 34.1406 31.3181C34.1406 32.9652 35.4722 34.3001 37.1094 34.3001C38.7498 34.3001 40.0781 32.9652 40.0781 31.3181C40.0781 29.671 38.7498 28.336 37.1094 28.336Z" fill="#40033F"/>
<path d="M54.7358 41.7552C51.4583 41.7552 48.7983 39.0853 48.7983 35.7911C48.7983 32.4969 51.4583 29.827 54.7358 29.827C58.0167 29.827 60.6733 32.4969 60.6733 35.7911C60.6733 39.0853 58.0167 41.7552 54.7358 41.7552ZM54.7358 32.8091C53.0987 32.8091 51.7671 34.144 51.7671 35.7911C51.7671 37.4382 53.0987 38.7731 54.7358 38.7731C56.3763 38.7731 57.7046 37.4382 57.7046 35.7911C57.7046 34.144 56.3763 32.8091 54.7358 32.8091Z" fill="#40033F"/>
<path d="M72.7344 34.3C69.4568 34.3 66.7969 31.6301 66.7969 28.3359C66.7969 25.0417 69.4568 22.3718 72.7344 22.3718C76.0153 22.3718 78.6719 25.0417 78.6719 28.3359C78.6719 31.6301 76.0153 34.3 72.7344 34.3ZM72.7344 25.3539C71.0972 25.3539 69.7656 26.6888 69.7656 28.3359C69.7656 29.983 71.0972 31.3179 72.7344 31.3179C74.3748 31.3179 75.7031 29.983 75.7031 28.3359C75.7031 26.6888 74.3748 25.3539 72.7344 25.3539Z" fill="#40033F"/>
<path d="M50.4223 36.1861C50.2961 36.1861 50.1732 36.1728 50.0504 36.143L41.0578 33.8616C40.2641 33.659 39.7826 32.8488 39.9819 32.0485C40.1844 31.2482 40.9914 30.7667 41.785 30.9692L50.7776 33.2473C51.5746 33.4498 52.0561 34.2601 51.8569 35.0571C51.6908 35.7212 51.0964 36.1861 50.4157 36.1861H50.4223Z" fill="#40033F"/>
<path d="M22.8634 43.5451C22.0431 43.5451 21.3757 42.8776 21.3757 42.0541C21.3757 41.5858 21.5948 41.1442 21.9701 40.8619L32.6563 32.8091C33.3138 32.3143 34.2436 32.4471 34.735 33.108C35.2265 33.7655 35.0937 34.7019 34.4395 35.1934L23.75 43.2462C23.4943 43.4388 23.1822 43.5451 22.8634 43.5451Z" fill="#40033F"/>
<path d="M58.8536 35.5752C58.0334 35.5785 57.3693 34.9111 57.3693 34.0875C57.3693 33.4831 57.7312 32.9352 58.2891 32.7061L68.0521 28.6614C68.8092 28.3493 69.6793 28.7112 69.9914 29.4717C70.3036 30.2354 69.9416 31.1055 69.1845 31.421L59.4215 35.4656C59.2422 35.5387 59.0496 35.5785 58.8536 35.5752Z" fill="#40033F"/>
</svg>
