<svg width="45" height="35" viewBox="0 0 45 35" fill="none" xmlns="http://www.w3.org/2000/svg">
<path d="M8.07761 34.4135V32.1218C8.07761 31.243 7.54273 30.6703 6.6648 30.6703C6.2037 30.6703 5.71032 30.8234 5.36634 31.3158C5.0989 30.8953 4.7208 30.6703 4.14442 30.6703C3.93013 30.661 3.71687 30.7051 3.52375 30.7984C3.33063 30.8917 3.16366 31.0315 3.03778 31.2052V30.7441H2.31201V34.4107H3.03778V32.3127C3.03778 31.6672 3.41957 31.3583 3.95445 31.3583C4.48933 31.3583 4.79457 31.7022 4.79457 32.3127V34.4135H5.52035V32.3127C5.52035 31.6672 5.90214 31.3583 6.43701 31.3583C6.97189 31.3583 7.27714 31.7022 7.27714 32.3127V34.4135H8.07761ZM19.9943 30.7847H18.6571V29.678H17.9332V30.7847H17.1696V31.4302H17.9332V33.1529C17.9332 33.993 18.2384 34.49 19.1551 34.49C19.5024 34.4828 19.8426 34.391 20.1464 34.2226L19.9168 33.5771C19.7108 33.7059 19.4718 33.7722 19.2288 33.768C18.8471 33.768 18.6562 33.5383 18.6562 33.1565V31.4007H19.9934V30.7893L19.9943 30.7847ZM26.7927 30.6703C26.5951 30.6659 26.3996 30.7129 26.2255 30.8066C26.0514 30.9004 25.9046 31.0377 25.7995 31.2052V30.7441H25.0738V34.4107H25.7995V32.3515C25.7995 31.7401 26.1048 31.3583 26.6018 31.3583C26.7696 31.3651 26.936 31.3907 27.098 31.4348L27.3276 30.7469C27.1525 30.7027 26.9732 30.677 26.7927 30.6703ZM16.5185 31.0521C16.1367 30.7847 15.6018 30.6703 15.0292 30.6703C14.1125 30.6703 13.5398 31.0908 13.5398 31.8166C13.5398 32.428 13.9603 32.7711 14.7617 32.8863L15.1435 32.9241C15.564 33.0007 15.8315 33.1538 15.8315 33.3447C15.8315 33.6121 15.5262 33.8058 14.9526 33.8058C14.5146 33.8148 14.0856 33.6807 13.7307 33.424L13.3489 33.9967C13.8838 34.3784 14.533 34.4578 14.9166 34.4578C15.9864 34.4578 16.5591 33.9616 16.5591 33.2737C16.5591 32.6281 16.098 32.3192 15.2984 32.2039L14.9166 32.1661C14.5727 32.1283 14.2711 32.013 14.2711 31.7843C14.2711 31.5169 14.5764 31.3232 14.9969 31.3232C15.458 31.3232 15.9135 31.5141 16.1432 31.6285L16.5185 31.0521ZM27.595 32.5802C27.595 33.6868 28.3208 34.49 29.5049 34.49C30.0398 34.49 30.4216 34.3757 30.8034 34.0695L30.4216 33.4968C30.1513 33.7158 29.8149 33.837 29.4671 33.8408C28.8216 33.8408 28.3208 33.3447 28.3208 32.6189C28.3208 31.8931 28.8151 31.4007 29.4671 31.4007C29.8149 31.4045 30.1513 31.5257 30.4216 31.7447L30.8034 31.172C30.4216 30.8667 30.0398 30.7515 29.5049 30.7515C28.3586 30.6749 27.595 31.4772 27.595 32.5848V32.5802ZM22.4768 30.6703C21.4071 30.6703 20.6813 31.4339 20.6813 32.5802C20.6813 33.7265 21.4449 34.49 22.5525 34.49C23.0913 34.5014 23.6175 34.3261 24.0418 33.9939L23.66 33.459C23.3531 33.6968 22.9784 33.8306 22.5903 33.8408C22.0941 33.8408 21.5593 33.5356 21.4836 32.8863H24.1958V32.5811C24.1958 31.4348 23.5079 30.6712 22.4768 30.6712V30.6703ZM22.439 31.3583C22.9739 31.3583 23.3557 31.7022 23.3935 32.2749H21.408C21.5224 31.7401 21.8691 31.3583 22.439 31.3583ZM12.5466 32.5802V30.7469H11.8208V31.2079C11.5534 30.864 11.1753 30.6731 10.6367 30.6731C9.60569 30.6731 8.84119 31.4754 8.84119 32.5829C8.84119 33.6905 9.60477 34.4928 10.6367 34.4928C11.1716 34.4928 11.5534 34.3019 11.8208 33.9579V34.419H12.5466V32.5802ZM9.60569 32.5802C9.60569 31.8922 10.0262 31.3583 10.752 31.3583C11.4399 31.3583 11.8586 31.8931 11.8586 32.5802C11.8586 33.3059 11.3975 33.8021 10.752 33.8021C10.0262 33.8399 9.60569 33.2672 9.60569 32.5802ZM37.8324 30.6703C37.6347 30.6659 37.4393 30.7129 37.2652 30.8066C37.0911 30.9004 36.9443 31.0377 36.8392 31.2052V30.7441H36.1134V34.4107H36.8383V32.3515C36.8383 31.7401 37.1435 31.3583 37.6406 31.3583C37.8083 31.3651 37.9747 31.3907 38.1367 31.4348L38.3664 30.7469C38.1912 30.7027 38.012 30.677 37.8315 30.6703H37.8324ZM35.0059 32.5802V30.7469H34.2801V31.2079C34.0126 30.864 33.6345 30.6731 33.096 30.6731C32.065 30.6731 31.3005 31.4754 31.3005 32.5829C31.3005 33.6905 32.064 34.4928 33.096 34.4928C33.6309 34.4928 34.0126 34.3019 34.2801 33.9579V34.419H35.0059V32.5802ZM32.065 32.5802C32.065 31.8922 32.4855 31.3583 33.2113 31.3583C33.8992 31.3583 34.3179 31.8931 34.3179 32.5802C34.3179 33.3059 33.8568 33.8021 33.2113 33.8021C32.4855 33.8399 32.065 33.2672 32.065 32.5802ZM42.3779 32.5802V29.2953H41.6521V31.2052C41.3847 30.8612 41.0066 30.6703 40.468 30.6703C39.437 30.6703 38.6725 31.4726 38.6725 32.5802C38.6725 33.6877 39.4361 34.49 40.468 34.49C41.0029 34.49 41.3847 34.2991 41.6521 33.9552V34.4163H42.3779V32.5802ZM39.437 32.5802C39.437 31.8922 39.8575 31.3583 40.5833 31.3583C41.2713 31.3583 41.69 31.8931 41.69 32.5802C41.69 33.3059 41.2289 33.8021 40.5833 33.8021C39.8566 33.8408 39.4361 33.2681 39.4361 32.5802H39.437Z" fill="black"/>
<path d="M15.6787 2.94092H28.9326V24.559H15.6787V2.94092Z" fill="#FF5F00"/>
<path d="M17.016 13.7499C17.0165 11.6702 17.4874 9.61762 18.3936 7.74575C19.2997 5.87387 20.6176 4.23125 22.2486 2.94088C20.2203 1.34615 17.7842 0.354285 15.2188 0.0786769C12.6534 -0.196931 10.0622 0.254838 7.74138 1.38234C5.4206 2.50984 3.4639 4.26758 2.09494 6.45463C0.725974 8.64167 0 11.1698 0 13.7499C0 16.3301 0.725974 18.8582 2.09494 21.0452C3.4639 23.2322 5.4206 24.99 7.74138 26.1175C10.0622 27.245 12.6534 27.6968 15.2188 27.4212C17.7842 27.1455 20.2203 26.1537 22.2486 24.5589C20.6176 23.2686 19.2997 21.626 18.3936 19.7541C17.4874 17.8822 17.0165 15.8296 17.016 13.7499Z" fill="#EB001B"/>
<path d="M44.5165 13.7499C44.5184 16.3282 43.7946 18.8549 42.4279 21.0411C41.0611 23.2274 39.1067 24.9848 36.7881 26.1125C34.4695 27.2401 31.8803 27.6924 29.3167 27.4177C26.7531 27.143 24.3185 26.1523 22.2915 24.5589C23.9228 23.2689 25.241 21.6263 26.1472 19.7544C27.0535 17.8824 27.5242 15.8296 27.5242 13.7499C27.5242 11.6701 27.0535 9.61733 26.1472 7.74538C25.241 5.87343 23.9228 4.23088 22.2915 2.94085C24.3185 1.34749 26.7531 0.356793 29.3167 0.0820584C31.8803 -0.192676 34.4695 0.259648 36.7881 1.3873C39.1067 2.51495 41.0611 4.27239 42.4279 6.45862C43.7946 8.64485 44.5184 11.1716 44.5165 13.7499Z" fill="#F79E1B"/>
</svg>
