<svg width="34" height="30" viewBox="0 0 34 30" fill="none" xmlns="http://www.w3.org/2000/svg">
<path d="M33.5052 5.02318C33.348 4.86451 33.1608 4.73868 32.9544 4.65301C32.7481 4.56734 32.5269 4.52355 32.3035 4.52418H31.1037V1.69657C31.1032 1.24676 30.9243 0.815529 30.6062 0.497471C30.2882 0.179412 29.857 0.000505176 29.4072 0H4.99264C3.66852 1.87477e-05 2.39863 0.526034 1.46233 1.46233C0.526034 2.39863 1.87477e-05 3.66852 0 4.99264V24.4145C1.87477e-05 25.7386 0.526034 27.0085 1.46233 27.9448C2.39863 28.8811 3.66852 29.4071 4.99264 29.4072H32.2367C32.6854 29.4063 33.1156 29.228 33.4334 28.9112C33.7513 28.5944 33.9309 28.1648 33.9332 27.716L34 6.22654C34.0014 6.00318 33.9584 5.78177 33.8734 5.57518C33.7885 5.36859 33.6633 5.18096 33.5052 5.02318ZM31.673 27.1451H4.99264C4.26845 27.1451 3.57393 26.8574 3.06185 26.3453C2.54977 25.8332 2.26209 25.1387 2.26209 24.4145V4.99264C2.26209 4.26845 2.54977 3.57393 3.06185 3.06185C3.57393 2.54977 4.26845 2.26209 4.99264 2.26209H28.8416V4.52418H5.0897V6.78627H31.7362L31.673 27.1451Z" fill="black"/>
<path d="M28.8417 15.2691H26.5796V17.5312H28.8417V15.2691Z" fill="black"/>
</svg>
