<svg width="75" height="75" viewBox="0 0 75 75" fill="none" xmlns="http://www.w3.org/2000/svg">
<mask id="mask0_2084_625" style="mask-type:luminance" maskUnits="userSpaceOnUse" x="0" y="0" width="75" height="75">
<path d="M0 0H74.5938V74.6176H0V0Z" fill="white"/>
</mask>
<g mask="url(#mask0_2084_625)">
<path d="M30.3237 0.133828C13.5033 0.318274 0.0149329 14.1071 0.199379 30.9275C0.383826 47.7478 14.1727 61.2332 30.993 61.0488C37.2047 60.9833 43.2468 59.0139 48.3131 55.4142L65.7076 72.8058C67.7009 74.7722 70.9138 74.7514 72.8773 72.7582C74.8259 70.7858 74.8259 67.6115 72.8773 65.6362L55.4828 48.2446C65.2317 34.5361 62.0217 15.5173 48.3131 5.76837C43.0594 2.03779 36.7644 0.0624289 30.3237 0.133828ZM29.9577 5.40543C43.8478 5.01869 55.4233 15.9635 55.813 29.8565C55.8189 30.1004 55.8249 30.3444 55.8249 30.5883C55.8279 44.4843 44.5677 55.7564 30.6717 55.7623C16.7758 55.7683 5.5037 44.5081 5.49775 30.6121C5.49775 30.6032 5.49775 30.5973 5.49775 30.5883C5.48288 16.9542 16.3265 5.78622 29.9577 5.40543Z" fill="white"/>
</g>
<path d="M23.9688 11.4445C25.3785 10.9384 26.9282 11.6701 27.4336 13.0816C27.936 14.4839 27.2174 16.0295 25.823 16.5447C19.9347 18.6909 16.0162 24.2941 16.0162 30.5679C16.0162 32.0678 14.8014 33.2842 13.3035 33.2842C11.8086 33.2842 10.5938 32.0678 10.5938 30.5679C10.5938 22.0138 15.9371 14.368 23.9688 11.4445Z" fill="white"/>
</svg>
