<svg width="105" height="105" viewBox="0 0 105 105" fill="none" xmlns="http://www.w3.org/2000/svg">
<path d="M62.641 7.15512C64.7748 13.1632 71.6386 16.0071 77.3954 13.2688C86.5424 8.92114 96.0825 18.4613 91.7348 27.6046C88.9966 33.3651 91.8404 40.2252 97.8485 42.3627C107.385 45.7563 107.385 59.2473 97.8485 62.6373C91.8404 64.7748 88.9966 71.6386 91.7348 77.3954C96.0825 86.5387 86.5424 96.0789 77.3954 91.7348C71.6386 88.9966 64.7748 91.8368 62.641 97.8449C59.2473 107.385 45.7563 107.385 42.3627 97.8449C40.2289 91.8368 33.3651 88.9966 27.6046 91.7348C18.4613 96.0789 8.92114 86.5387 13.2688 77.3954C16.0071 71.6386 13.1632 64.7748 7.15512 62.6373C-2.38504 59.2473 -2.38504 45.7563 7.15512 42.3627C13.1632 40.2252 16.0071 33.3651 13.2688 27.6046C8.92114 18.4613 18.4613 8.92114 27.6046 13.2688C33.3651 16.0071 40.2289 13.1632 42.3627 7.15512C45.7563 -2.38504 59.2473 -2.38504 62.641 7.15512Z" fill="#00D300"/>
<path d="M39.7702 76.2521L24.7645 56.7676C23.439 55.0416 23.7595 52.5655 25.4854 51.2364L27.1095 49.9875C28.8354 48.6584 31.3115 48.9789 32.6369 50.7048L40.0469 60.3287C41.5908 62.3351 44.5985 62.3861 46.2116 60.438L72.3123 28.8899C73.7033 27.2113 76.1867 26.9782 77.8653 28.3656L79.4456 29.6728C81.1242 31.0601 81.3573 33.5471 79.9699 35.2221L45.9312 76.3613C44.3182 78.3094 41.3141 78.2584 39.7702 76.2521Z" fill="white"/>
</svg>
