<svg width="67" height="21" viewBox="0 0 67 21" fill="none" xmlns="http://www.w3.org/2000/svg">
<path d="M23.6676 20.2909L27.0561 0.406504H32.4759L29.0849 20.2909H23.6676ZM48.6663 0.835151C47.5927 0.432304 45.91 0 43.8088 0C38.4532 0 34.681 2.69692 34.6487 6.56216C34.6185 9.41937 37.342 11.0134 39.3977 11.9644C41.5076 12.9394 42.2166 13.5608 42.2065 14.431C42.193 15.764 40.5218 16.3726 38.9638 16.3726C36.7947 16.3726 35.6422 16.0712 33.8622 15.3291L33.1636 15.0131L32.4031 19.4643C33.669 20.0197 36.0098 20.5003 38.4405 20.5253C44.1378 20.5253 47.8364 17.8592 47.8784 13.7314C47.8987 11.4694 46.4548 9.74817 43.3278 8.32886C41.4334 7.40899 40.2732 6.79518 40.2855 5.86373C40.2855 5.03721 41.2675 4.15341 43.3896 4.15341C45.1617 4.12588 46.4458 4.51238 47.4461 4.91522L47.9318 5.14468L48.6663 0.835151ZM62.6135 0.406198H58.4256C57.1283 0.406198 56.1572 0.76029 55.5876 2.05517L47.5383 20.2778H53.2296C53.2296 20.2778 54.1599 17.8277 54.3704 17.2896C54.9923 17.2896 60.5213 17.2982 61.3116 17.2982C61.4737 17.9943 61.971 20.2778 61.971 20.2778H67.0002L62.6135 0.405589V0.406198ZM55.9688 13.2463C56.4171 12.1007 58.1283 7.68772 58.1283 7.68772C58.0964 7.74064 58.5733 6.53646 58.8468 5.78989L59.2131 7.50427C59.2131 7.50427 60.2509 12.2508 60.4678 13.246H55.9688V13.2463ZM19.0666 0.406198L13.7604 13.9665L13.1952 11.2109C12.2072 8.03419 9.12961 4.59252 5.68896 2.8695L10.5409 20.2592L16.2753 20.2528L24.808 0.405995L19.0666 0.405895" fill="#0E4595"/>
<path d="M8.80889 0.405487H0.0692744L0 0.819203C6.79933 2.46513 11.2982 6.44271 13.1661 11.2225L11.2658 2.08483C10.9378 0.825702 9.98624 0.449874 8.80909 0.405994" fill="#F2AE14"/>
</svg>
